<?xml version="1.0" encoding="UTF-8"?>
<svg xmlns="http://www.w3.org/2000/svg" xmlns:xlink="http://www.w3.org/1999/xlink" width="326px" height="150px" viewBox="0 0 325 150" version="1.1">
<g id="surface1">
<path style=" stroke:none;fill-rule:nonzero;fill:rgb(0%,0%,0%);fill-opacity:1;" d="M 43.433594 29.667969 C 38.054688 30.820312 30.207031 34.210938 25.4375 37.433594 C 21.714844 39.941406 18.128906 43.164062 15.832031 46.042969 C 13.800781 48.585938 12.246094 51.402344 12.652344 51.773438 C 12.957031 52.078125 13.9375 51.097656 17.691406 46.824219 C 22.832031 40.992188 28.480469 36.71875 34.199219 34.347656 C 42.148438 31.089844 53.546875 30.3125 62.679688 32.414062 C 74.585938 35.160156 86.289062 44.859375 91.703125 56.453125 C 94.308594 62.015625 95.253906 66.660156 95.625 75.339844 L 95.828125 81.035156 L 86.5625 81.035156 C 74.753906 81.035156 49.117188 81.644531 48.234375 81.917969 C 47.558594 82.121094 47.59375 82.152344 48.371094 82.460938 C 50.128906 83.136719 62.542969 83.410156 79.523438 83.207031 L 96.980469 82.96875 L 97.183594 78.1875 C 97.589844 68.523438 96.4375 62.554688 92.480469 54.417969 C 90.179688 49.636719 88.320312 47.195312 82.941406 42.007812 C 77.832031 37.09375 74.550781 34.890625 68.632812 32.480469 C 64.101562 30.617188 61.054688 30.039062 53.074219 29.5 C 46.984375 29.089844 46.003906 29.089844 43.433594 29.667969 Z M 43.433594 29.667969 "/>
<path style=" stroke:none;fill-rule:nonzero;fill:rgb(0%,0%,0%);fill-opacity:1;" d="M 141.394531 57.265625 C 137.503906 58.488281 133.984375 61.503906 132.394531 64.929688 C 131.007812 67.949219 130.46875 70.726562 130.46875 75.269531 C 130.398438 86.222656 134.863281 92.425781 143.691406 93.613281 C 153.027344 94.867188 159.828125 90.460938 161.925781 81.816406 C 162.566406 79.035156 162.636719 72.695312 162.058594 69.507812 C 161.148438 64.660156 157.933594 60.183594 154.042969 58.351562 C 150.457031 56.65625 144.808594 56.148438 141.394531 57.265625 Z M 150.59375 58.859375 C 154.3125 60.792969 156.917969 64.726562 157.664062 69.644531 C 158.136719 72.625 157.796875 80.933594 157.085938 83.679688 C 156.207031 87.070312 153.300781 90.664062 150.457031 91.886719 C 148.96875 92.53125 148.257812 92.632812 145.960938 92.496094 C 141.664062 92.257812 139.09375 90.460938 137.027344 86.222656 C 135.4375 83 134.863281 80.121094 134.863281 75.269531 C 134.832031 67.132812 137.402344 61.4375 142.203125 58.929688 C 144.742188 57.605469 148.125 57.605469 150.59375 58.859375 Z M 150.59375 58.859375 "/>
<path style=" stroke:none;fill-rule:nonzero;fill:rgb(0%,0%,0%);fill-opacity:1;" d="M 169.804688 57.300781 C 168.488281 57.503906 168.453125 57.539062 169.402344 57.574219 L 170.484375 57.640625 L 170.484375 92.867188 L 169.402344 93.003906 C 168.792969 93.070312 169.738281 93.140625 171.496094 93.140625 C 174.035156 93.171875 174.542969 93.105469 173.832031 92.835938 L 172.953125 92.460938 L 172.714844 80.527344 C 172.613281 73.949219 172.613281 67.03125 172.714844 65.167969 L 172.953125 61.742188 L 174.304688 63.675781 C 175.050781 64.726562 178.566406 69.878906 182.117188 75.101562 C 189.085938 85.410156 194.160156 92.53125 194.9375 93.171875 C 195.34375 93.511719 195.480469 93.480469 195.683594 93.003906 C 195.988281 92.257812 196.496094 75.203125 196.496094 65.234375 L 196.527344 58.113281 L 197.476562 57.742188 C 198.21875 57.4375 197.8125 57.367188 195.175781 57.402344 C 193.417969 57.402344 192.46875 57.46875 193.078125 57.539062 L 194.160156 57.675781 L 194.160156 70.964844 C 194.160156 78.324219 194.027344 84.085938 193.855469 83.882812 C 193.113281 83.035156 190.238281 78.898438 183.203125 68.386719 L 175.523438 56.960938 L 173.425781 57.03125 C 172.277344 57.03125 170.652344 57.164062 169.804688 57.300781 Z M 169.804688 57.300781 "/>
<path style=" stroke:none;fill-rule:nonzero;fill:rgb(0%,0%,0%);fill-opacity:1;" d="M 271.285156 57.300781 C 268.613281 57.4375 267.96875 57.539062 268.679688 57.777344 L 269.59375 58.046875 L 269.59375 92.496094 L 268.679688 92.765625 C 267.359375 93.171875 273.515625 93.480469 283.597656 93.546875 L 291.679688 93.582031 L 291.410156 92.121094 C 291.277344 91.34375 291.039062 89.242188 290.9375 87.476562 C 290.734375 84.664062 290.667969 84.359375 290.328125 85.171875 C 290.089844 85.644531 289.820312 87.003906 289.6875 88.15625 C 289.550781 89.273438 289.210938 90.527344 288.875 90.9375 C 288.0625 91.953125 285.761719 92.222656 279.671875 91.988281 L 274.328125 91.785156 L 274.328125 76.390625 L 278.960938 76.1875 C 281.5 76.050781 284.273438 75.949219 285.152344 75.949219 L 286.710938 75.949219 L 287.25 77.542969 L 287.792969 79.171875 L 287.792969 71.371094 L 287.285156 72.964844 L 286.808594 74.59375 L 285.1875 74.59375 C 284.308594 74.59375 281.5 74.492188 278.960938 74.355469 L 274.328125 74.152344 L 274.328125 58.757812 L 279.402344 58.523438 C 282.175781 58.421875 284.816406 58.386719 285.21875 58.453125 C 287.824219 58.996094 287.925781 59.03125 288.398438 60.183594 C 288.671875 60.828125 288.875 61.878906 288.875 62.523438 C 288.875 63.167969 289.042969 64.117188 289.246094 64.660156 C 289.789062 66.117188 290.089844 65.097656 290.328125 60.996094 L 290.566406 57.402344 L 289.28125 57.164062 C 287.824219 56.929688 276.527344 56.996094 271.285156 57.300781 Z M 271.285156 57.300781 "/>
<path style=" stroke:none;fill-rule:nonzero;fill:rgb(0%,0%,0%);fill-opacity:1;" d="M 206.101562 57.539062 L 207.015625 57.675781 L 207.015625 92.902344 L 206.101562 92.96875 C 203.699219 93.105469 213.070312 93.511719 219.800781 93.546875 L 227.3125 93.582031 L 227.277344 89.578125 C 227.242188 87.410156 227.140625 85.238281 226.972656 84.765625 L 226.734375 83.917969 L 226.328125 84.867188 C 226.125 85.410156 225.722656 87.171875 225.449219 88.765625 C 225.179688 90.359375 224.910156 91.683594 224.839844 91.75 C 224.808594 91.785156 221.832031 91.917969 218.277344 92.054688 L 211.75 92.324219 L 211.75 87.917969 C 211.75 85.511719 211.851562 77.78125 211.988281 70.796875 L 212.191406 58.046875 L 213.238281 57.707031 C 214.050781 57.4375 213.207031 57.367188 209.722656 57.402344 C 207.21875 57.402344 205.558594 57.46875 206.101562 57.539062 Z M 206.101562 57.539062 "/>
<path style=" stroke:none;fill-rule:nonzero;fill:rgb(0%,0%,0%);fill-opacity:1;" d="M 231.980469 57.707031 L 233.0625 58.082031 L 233.0625 92.425781 L 232.148438 92.800781 C 231.371094 93.105469 231.777344 93.171875 234.414062 93.140625 C 236.171875 93.140625 237.121094 93.070312 236.546875 93.003906 L 235.429688 92.867188 L 235.429688 77.203125 C 235.429688 61.539062 235.429688 61.539062 236.105469 62.386719 C 236.476562 62.863281 239.320312 66.964844 242.429688 71.542969 C 250.246094 83 254.167969 88.597656 256.332031 91.34375 C 257.992188 93.445312 258.226562 93.613281 258.566406 93.039062 C 258.835938 92.597656 258.972656 86.933594 259.039062 75.035156 L 259.140625 57.675781 L 260.222656 57.539062 C 260.832031 57.46875 259.851562 57.402344 258.09375 57.402344 C 255.554688 57.367188 255.046875 57.4375 255.757812 57.707031 L 256.636719 58.082031 L 256.839844 69.132812 C 256.941406 75.203125 256.941406 81.035156 256.808594 82.050781 L 256.570312 83.917969 L 250.953125 75.78125 C 247.875 71.304688 243.785156 65.304688 241.855469 62.453125 L 238.335938 57.300781 L 234.582031 57.335938 C 231.503906 57.367188 231.066406 57.4375 231.980469 57.707031 Z M 231.980469 57.707031 "/>
<path style=" stroke:none;fill-rule:nonzero;fill:rgb(0%,0%,0%);fill-opacity:1;" d="M 5.75 69.914062 C 5.3125 72.964844 5.511719 77.203125 6.292969 82.390625 C 7.070312 87.375 8.015625 90.699219 9.777344 94.429688 C 16.167969 108.023438 28.515625 117.652344 43.296875 120.570312 C 47.726562 121.453125 56.015625 121.382812 60.445312 120.433594 C 70.867188 118.164062 78.949219 113.484375 86.1875 105.449219 C 88.523438 102.871094 90.992188 99.445312 90.992188 98.769531 C 90.992188 98.496094 88.453125 100.734375 85.34375 103.71875 C 78.847656 109.921875 76.277344 112.058594 72.421875 114.398438 C 67.3125 117.484375 61.832031 118.941406 54.289062 119.246094 C 39 119.859375 27.941406 115.28125 18.265625 104.363281 C 15.253906 100.9375 13.902344 98.871094 11.839844 94.429688 C 8.320312 86.933594 7.441406 82.933594 7.441406 74.558594 L 7.441406 69.234375 L 30.714844 69.101562 C 53.207031 69 56.625 68.828125 54.59375 67.980469 C 53.34375 67.507812 41.773438 67.167969 24.152344 67.167969 L 6.15625 67.132812 Z M 5.75 69.914062 "/>
<path style=" stroke:none;fill-rule:nonzero;fill:rgb(0%,0%,0%);fill-opacity:1;" d="M 112.640625 79.644531 C 111.421875 79.984375 111.59375 80.765625 112.980469 81.136719 C 114.738281 81.578125 125.019531 81.304688 125.5625 80.765625 C 125.867188 80.457031 125.867188 80.253906 125.5625 79.917969 C 125.054688 79.441406 114.09375 79.203125 112.640625 79.644531 Z M 112.640625 79.644531 "/>
<path style=" stroke:none;fill-rule:nonzero;fill:rgb(0%,0%,0%);fill-opacity:1;" d="M 131.988281 104.9375 C 130.941406 105.71875 129.789062 108.09375 130.0625 108.972656 C 130.164062 109.347656 130.398438 110.804688 130.535156 112.160156 C 131.007812 116.46875 132.15625 116.367188 132.632812 111.992188 C 132.765625 110.535156 132.902344 109.3125 132.902344 109.277344 C 132.9375 109.246094 133.273438 109.175781 133.714844 109.109375 C 134.730469 108.972656 134.660156 108.058594 133.613281 107.820312 C 133.003906 107.683594 132.765625 107.378906 132.765625 106.804688 C 132.765625 106.226562 133.003906 105.921875 133.613281 105.785156 C 134.085938 105.683594 134.457031 105.378906 134.457031 105.109375 C 134.457031 104.394531 132.902344 104.292969 131.988281 104.9375 Z M 131.988281 104.9375 "/>
<path style=" stroke:none;fill-rule:nonzero;fill:rgb(0%,0%,0%);fill-opacity:1;" d="M 195.175781 105.074219 C 194.632812 106.125 194.734375 113.992188 195.3125 114.804688 C 195.921875 115.585938 196.496094 115.144531 197.070312 113.484375 C 197.578125 111.921875 198.355469 111.957031 199.371094 113.550781 C 200.214844 114.875 201.265625 115.519531 201.941406 115.109375 C 202.144531 114.976562 201.941406 114.230469 201.398438 113.179688 C 200.519531 111.449219 200.453125 110.058594 201.09375 108.398438 C 201.570312 107.246094 200.453125 107.820312 198.660156 109.6875 L 196.867188 111.550781 L 196.867188 108.839844 C 196.867188 105.074219 196.089844 103.378906 195.175781 105.074219 Z M 195.175781 105.074219 "/>
<path style=" stroke:none;fill-rule:nonzero;fill:rgb(0%,0%,0%);fill-opacity:1;" d="M 110.746094 106.195312 C 108.714844 107.582031 107.398438 109.957031 107.734375 111.515625 C 108.039062 112.976562 109.460938 114.566406 111.117188 115.3125 C 112.777344 116.09375 115.109375 116.160156 115.683594 115.449219 C 116.058594 115.007812 115.820312 114.941406 113.757812 114.941406 C 111.1875 114.941406 110.238281 114.5 109.425781 112.90625 C 108.34375 110.804688 109.054688 108.464844 111.1875 106.972656 C 113.082031 105.71875 114.773438 105.820312 116.226562 107.277344 C 117.171875 108.226562 117.375 108.667969 117.375 109.921875 C 117.375 111.6875 116.597656 113.042969 116.023438 112.230469 C 115.855469 111.957031 115.683594 111.042969 115.683594 110.160156 C 115.683594 109.3125 115.515625 108.464844 115.277344 108.226562 C 114.398438 107.347656 111.828125 108.09375 110.8125 109.585938 C 110.070312 110.636719 110.136719 111.109375 111.117188 112.058594 C 111.828125 112.804688 112.234375 112.90625 114.265625 112.90625 C 117.308594 112.90625 118.085938 112.363281 118.289062 109.992188 C 118.492188 107.992188 117.679688 106.734375 115.550781 105.753906 C 113.585938 104.871094 112.605469 104.9375 110.746094 106.195312 Z M 110.746094 106.195312 "/>
<path style=" stroke:none;fill-rule:nonzero;fill:rgb(0%,0%,0%);fill-opacity:1;" d="M 155.734375 106.972656 C 154.789062 108.398438 154.6875 112.058594 155.53125 113.585938 C 156.242188 114.875 157.59375 115.3125 158.507812 114.566406 C 159.183594 113.992188 159.082031 113.6875 158.070312 113.179688 C 156.511719 112.433594 156.582031 109.753906 158.171875 109.175781 C 159.152344 108.804688 159.117188 108.058594 158.101562 107.890625 C 157.730469 107.820312 157.1875 107.378906 156.886719 106.90625 L 156.34375 106.023438 Z M 155.734375 106.972656 "/>
<path style=" stroke:none;fill-rule:nonzero;fill:rgb(0%,0%,0%);fill-opacity:1;" d="M 122.890625 108.328125 C 121.773438 108.804688 120.757812 110.328125 120.757812 111.550781 C 120.757812 112.667969 121.636719 114.09375 122.621094 114.535156 C 126.171875 116.160156 129.621094 111.550781 126.882812 108.804688 C 125.765625 107.71875 124.613281 107.550781 122.890625 108.328125 Z M 122.890625 108.328125 "/>
<path style=" stroke:none;fill-rule:nonzero;fill:rgb(0%,0%,0%);fill-opacity:1;" d="M 165.746094 108.804688 C 165.746094 110.195312 166.929688 113.855469 167.640625 114.636719 C 168.894531 116.027344 169.671875 115.042969 170.484375 111.109375 C 170.6875 110.058594 170.992188 109.175781 171.160156 109.175781 C 171.328125 109.175781 171.632812 110.058594 171.835938 111.109375 C 172.445312 114.09375 173.019531 115.28125 173.867188 115.28125 C 174.371094 115.28125 174.777344 114.875 175.253906 113.753906 C 176.0625 111.921875 176.539062 107.820312 175.929688 107.820312 C 175.355469 107.820312 174.542969 109.921875 174.542969 111.347656 C 174.542969 113.585938 173.425781 113.109375 173.019531 110.703125 C 172.34375 106.871094 169.976562 106.871094 169.300781 110.703125 C 168.824219 113.449219 167.777344 114.027344 167.777344 111.550781 C 167.777344 109.515625 166.964844 107.855469 166.019531 107.820312 C 165.847656 107.820312 165.746094 108.261719 165.746094 108.804688 Z M 165.746094 108.804688 "/>
<path style=" stroke:none;fill-rule:nonzero;fill:rgb(0%,0%,0%);fill-opacity:1;" d="M 180.460938 108.226562 C 179.3125 108.839844 178.9375 109.585938 178.9375 111.3125 C 178.9375 112.667969 179.109375 113.109375 179.921875 113.957031 C 181.308594 115.3125 182.898438 115.3125 184.519531 113.890625 C 185.5 113.007812 185.703125 112.601562 185.703125 111.484375 C 185.703125 109.789062 184.925781 108.296875 183.945312 108.023438 C 182.761719 107.71875 181.207031 107.785156 180.460938 108.226562 Z M 180.460938 108.226562 "/>
<path style=" stroke:none;fill-rule:nonzero;fill:rgb(0%,0%,0%);fill-opacity:1;" d="M 188.476562 108.226562 C 187.835938 108.871094 187.9375 114.398438 188.578125 114.941406 C 189.390625 115.621094 189.832031 114.941406 190.136719 112.703125 C 190.339844 111.210938 190.644531 110.535156 191.488281 109.652344 C 192.707031 108.398438 192.605469 107.820312 191.253906 108.429688 C 190.574219 108.769531 190.304688 108.738281 189.898438 108.328125 C 189.257812 107.71875 189.019531 107.683594 188.476562 108.226562 Z M 188.476562 108.226562 "/>
<path style=" stroke:none;fill-rule:nonzero;fill:rgb(0%,0%,0%);fill-opacity:1;" d="M 135.980469 112.839844 C 135.980469 116.5 136.082031 117.652344 136.488281 118.195312 C 136.996094 118.839844 136.996094 118.839844 137.503906 118.195312 C 137.773438 117.824219 138.011719 116.875 138.011719 116.09375 C 138.011719 114.363281 138.246094 114.160156 139.632812 114.671875 C 141.292969 115.3125 142.238281 114.671875 142.746094 112.601562 C 143.152344 110.804688 142.980469 109.71875 142.136719 108.738281 C 141.730469 108.261719 141.054688 108.160156 138.789062 108.160156 L 135.980469 108.160156 Z M 135.980469 112.839844 "/>
<path style=" stroke:none;fill-rule:nonzero;fill:rgb(0%,0%,0%);fill-opacity:1;" d="M 145.453125 112.839844 C 145.453125 116.5 145.554688 117.652344 145.960938 118.195312 C 146.464844 118.839844 146.464844 118.839844 146.972656 118.195312 C 147.277344 117.824219 147.480469 116.839844 147.480469 115.890625 C 147.480469 114.160156 147.582031 114.058594 149.039062 114.601562 C 151 115.382812 152.417969 113.6875 152.148438 110.839844 C 151.914062 108.363281 151.574219 108.160156 148.292969 108.160156 L 145.453125 108.160156 Z M 145.453125 112.839844 "/>
</g>
</svg>
