<svg xmlns="http://www.w3.org/2000/svg" xmlns:xlink="http://www.w3.org/1999/xlink" id="body_1" width="50" height="50">

<defs fill="#3bb77e">
                        <clipPath id="1" fill="#3bb77e">

                            <path clip-rule="evenodd" d="M0 492L492 492L492 0L0 0L0 492z" fill="#3bb77e"/>                        </clipPath>
</defs>

<g transform="matrix(0.5 0 0 0.5 0 0)">
	<g transform="matrix(0.15243903 0 0 0.15243903 0 0)">
		<g transform="matrix(1 0 0 1 0 0)">
			<g transform="matrix(1.3333333 0 -0 -1.3333333 0 656)">
				<g>
					<g clip-path="url(#1)">
						<g transform="matrix(1 0 0 1 59.063 275.5464)">
                            <path d="M0 0C 1.223 -1.767 3.585 -2.378 5.68 -2.359C 7.8199997 -2.333 9.908 -1.926 11.952999 -1.4679999C 16.042 -0.5149999 19.994999 0.753 23.981998 1.753C 27.951998 2.801 31.937998 3.676 35.934 4.097C 37.908997 4.322 39.967 4.3640003 42.009 4.46C 44.051 4.519 46.09 4.706 48.127 4.659C 56.279 4.651 64.382996 3.968 72.257996 2.225C 75.795 1.4789999 79.265 0.48799992 82.699 -0.648C 86.93 -2.05 91.102 -3.687 95.231995 -5.5299997C 102.75199 -8.712999 110.354 -12.61 118.93099 -14.479C 121.093994 -14.836 123.23599 -15.292 125.44499 -15.332C 127.620995 -15.493 129.85399 -15.5789995 132.13399 -15.231999C 134.39099 -14.914999 136.704 -14.369999 138.829 -13.249999C 140.95099 -12.149999 142.84299 -10.581999 144.312 -8.759999C 144.907 -8.014999 145.42299 -7.240999 145.901 -6.4499993C 147.792 -3.3269994 148.847 0.09600067 149.532 3.4240003C 150.401 7.6270003 150.784 11.806 151.12599 15.955C 151.73499 24.255001 152.06299 32.483 153.77399 40.626C 150.872 32.805 149.77399 24.411999 148.42398 16.276999C 147.76299 12.203999 147.10197 8.138999 145.99998 4.284999C 145.17099 1.3319988 144.09598 -1.5370011 142.54199 -3.9290009C 142.075 -4.646001 141.577 -5.3320007 141.015 -5.9520006C 138.622 -8.659 135.271 -10.063001 131.562 -10.397001C 129.72699 -10.628001 127.793 -10.493001 125.848 -10.286001C 123.901 -10.200001 121.992 -9.713001 120.076 -9.345001C 112.433 -7.5200014 105.118 -3.8100014 97.461 -0.42600155C 95.689 0.342 93.893 1.083 92.078 1.795C 86.029 4.167 79.757 6.168 73.318 7.393C 64.947 8.922 56.422 9.524 48.002 9.005C 45.896 8.941 43.808 8.642 41.713 8.471C 39.624 8.259 37.535 8.127 35.412 7.71C 31.199 6.949 27.133 5.749 23.182 4.369C 19.237 2.961 15.397 1.384 11.527 0.017C 9.592 -0.654 7.633 -1.26 5.631 -1.519C 3.673 -1.787 1.466 -1.57 0 0zM160.416 44.02C 158.78 49.574 154.889 54.319 150.565 58.154C 146.194 62.033 141.174 65.046 135.98401 67.593C 130.75002 70.062004 125.29201 72.052 119.64401 73.302C 114.043015 74.517 108.09001 75.276 102.45601 73.979004C 108.16901 73.726006 113.559006 72.204 118.88201 70.517006C 124.17901 68.74901 129.37401 66.686005 134.37401 64.24901C 136.90901 63.098007 139.33801 61.74601 141.75002 60.376007L141.75002 60.376007L145.31502 58.230007C 146.44202 57.431007 147.58902 56.65801 148.75102 55.893005C 153.20602 52.614006 157.36603 48.884007 160.41602 44.020004zM178.29199 55.477C 175.221 61.646 170.409 66.987 164.758 71.11C 159.114 75.282 152.659 78.25 146.01799 80.365C 139.34698 82.425995 132.45299 83.596 125.54799 84.039C 118.64999 84.494 111.693985 84.226 104.93199 82.955C 111.79699 82.69 118.55899 82.147 125.24899 81.167C 131.922 80.153 138.54399 78.866 144.91699 76.82C 151.305 74.849 157.45699 72.188 163.135 68.708C 168.806 65.209 173.913 60.799 178.29199 55.477zM192.21999 61.11C 188.97499 68.722 183.13799 75.178 176.387 80.086C 169.61899 85.050995 161.901 88.577995 153.93999 91.065C 145.94598 93.474 137.65298 94.880005 129.32399 95.032005C 121.04099 95.185005 112.54499 94.244 104.93199 91.003006C 112.97299 92.755005 121.12699 92.82101 129.17 92.148C 137.20999 91.41901 145.173 89.905 152.849 87.51601C 160.538 85.17901 167.958 81.95801 174.751 77.69301C 181.52 73.40401 187.613 67.948006 192.22 61.11001zM170.20198 98.535C 163.41599 102.57001 155.75098 104.856 148.05598 106.125C 140.32698 107.307 132.47998 107.463 124.761986 106.606C 120.901985 106.19701 117.07499 105.508 113.316986 104.568C 109.57799 103.584 105.85299 102.4 102.455986 100.566C 106.14999 101.635 109.89198 102.311005 113.65999 102.787C 117.41899 103.292 121.19999 103.57201 124.97299 103.727005C 132.521 103.978004 140.07999 103.663 147.47499 102.45801C 151.178 101.90001 154.83499 101.086006 158.411 100.020004C 162.00299 99.005005 165.471 97.614006 168.82199 95.98601C 175.50299 92.684006 181.512 88.00101 186.33899 81.99401C 182.82298 88.862015 176.98799 94.584015 170.202 98.53501zM168.62798 113.534004C 161.19197 117.274 152.96898 119.08501 144.79498 119.858C 136.59099 120.559 128.33598 120.199005 120.27098 118.791C 116.23598 118.106 112.249985 117.137 108.36098 115.873C 104.52098 114.519005 100.62298 113.021 97.39898 110.503C 101.029976 112.306 104.93698 113.270996 108.83498 114.122C 112.74498 114.949005 116.70398 115.505005 120.66598 115.93C 128.59297 116.722 136.58197 116.907 144.46397 116.161C 152.33698 115.477005 160.15897 113.911 167.42297 110.897C 174.67598 107.895004 181.31297 103.285 186.33897 96.884C 182.63197 104.151 176.04898 109.895004 168.62798 113.534004zM184.41698 115.130005C 183.66197 116.343 182.78598 117.51201 181.77798 118.532005C 179.77098 120.593 177.45999 122.31901 175.02399 123.786C 170.14899 126.744 164.82098 128.768 159.39899 130.312C 153.95398 131.785 148.35799 132.708 142.71599 132.892C 137.10799 133.076 131.327 132.58 126.10399 130.515C 131.65298 131.067 137.08899 130.716 142.48099 130.015C 147.85999 129.257 153.19998 128.219 158.413 126.733C 163.636 125.311005 168.76799 123.525 173.642 121.237C 176.061 120.064 178.43 118.773 180.569 117.167C 182.733 115.593 184.677 113.689 185.836 111.13C 185.65 112.518 185.125 113.873 184.41699 115.13zM156.57498 140.681C 148.10199 144.333 138.93498 146.574 129.61798 147.014C 120.31098 147.35501 110.87398 145.882 102.28198 142.27101C 97.97798 140.50801 93.91098 138.184 90.23198 135.363C 88.41798 133.92001 86.66098 132.401 85.13098 130.658C 83.62898 128.929 82.16998 126.996 81.65498 124.742004C 82.540985 126.853004 84.19998 128.446 85.85398 129.933C 87.54398 131.402 89.374985 132.7 91.27098 133.875C 95.05298 136.248 99.12298 138.12 103.31598 139.575C 111.71098 142.47299 120.61898 143.69499 129.46198 143.305C 133.89197 143.178 138.29698 142.519 142.64697 141.625C 147.02597 140.809 151.27797 139.415 155.51497 137.983C 163.93597 134.925 172.03197 130.868 179.91696 126.29C 172.91696 132.135 165.04796 137.019 156.57497 140.681zM143.14598 154.945C 138.87698 156.371 134.46698 157.38501 129.99197 158.08101C 125.50098 158.667 120.94498 158.826 116.40897 158.539C 107.34297 157.888 98.392975 155.23 90.572975 150.654C 86.65398 148.393 83.004974 145.681 79.77598 142.544C 78.16798 140.972 76.64498 139.31201 75.30598 137.509C 74.642975 136.623 74.01198 135.70601 73.447975 134.754C 72.88397 133.804 72.390976 132.817 71.99998 131.79199C 71.989975 131.767 71.975975 131.74199 71.96598 131.717C 71.98198 131.74399 72.00198 131.769 72.01798 131.795C 72.49498 132.587 73.03198 133.331 73.60098 134.046C 74.37898 135.02501 75.21598 135.951 76.082985 136.841C 77.61598 138.39801 79.24299 139.856 80.971985 141.18001C 84.37099 143.89801 88.09299 146.169 91.944984 148.113C 99.67298 151.96101 108.10298 154.28801 116.67299 154.835C 120.95399 155.16501 125.26899 155.04501 129.55699 154.591C 133.851 154.125 138.08699 153.22 142.30598 152.17C 150.69199 149.853 158.81699 146.461 166.76599 142.525C 159.622 147.782 151.655 152.02199 143.146 154.94499zM109.553986 168.746C 102.15598 168.49901 94.89298 166.377 88.30099 163.092C 82.25399 159.991 76.71199 155.912 72.082985 150.963C 71.68999 150.543 71.291985 150.12799 70.91199 149.696C 66.09299 144.228 62.207985 137.553 61.287987 130.342C 63.52099 136.593 67.36599 141.90399 71.84299 146.521C 72.22999 146.91899 72.61298 147.32199 73.00899 147.70999C 78.02998 152.562 83.75799 156.668 89.971985 159.777C 96.16199 162.926 102.86798 165.051 109.76698 165.855C 116.67298 166.64499 123.75998 165.95 130.62299 163.743C 124.389984 167.37999 116.92399 169.04399 109.553986 168.746zM79.68498 168.81L78.15998 168.329L76.69998 167.683C 75.74098 167.222 74.71298 166.873 73.81598 166.29199C 70.02098 164.28499 66.73698 161.426 63.880978 158.25899C 63.36598 157.67398 62.880978 157.06398 62.394978 156.456C 60.213978 153.72899 58.31698 150.78 56.845978 147.622C 56.43498 146.704 56.03098 145.76799 55.65698 144.817C 54.46598 141.793 53.59298 138.619 53.85898 135.371C 53.98098 137.476 54.68498 139.45801 55.43898 141.378C 55.72598 142.08301 56.01498 142.785 56.32898 143.477C 56.442978 143.727 56.54798 143.98001 56.67498 144.225C 57.10398 145.167 57.58498 146.082 58.11198 146.974C 59.04298 148.612 60.05098 150.205 61.122982 151.75C 62.398983 153.591 63.77098 155.361 65.264984 157.022C 67.984985 160.097 71.07698 162.858 74.54698 165.064C 78.013985 167.282 81.83698 168.91699 85.89598 170.06C 83.81798 169.788 81.70398 169.491 79.68498 168.81zM41.787 38.073C 45.667 34.684002 63.841 36.448 66.627 43.876003C 54.265 41.845005 44.572998 45.270004 41.787 48.055004C 37.376 45.734005 37.906998 41.462006 41.787 38.073006zM94.718 30.018002C 94.541 32.579002 94.020004 35.078003 93.239006 37.459C 92.454 39.841 91.44301 42.128998 90.24801 44.315998C 89.04901 46.498997 87.66701 48.594997 85.89601 50.454C 86.28501 47.921997 86.90701 45.551 87.58001 43.211998C 88.25001 40.873997 88.95501 38.575996 89.70801 36.310997C 90.43301 34.038 91.186005 31.798996 91.85901 29.540997C 92.50101 27.256996 93.13901 25.066998 93.09201 22.518997C 94.66101 24.635998 94.88201 27.518997 94.71801 30.017998zM100.013 68.717C 104.288 66.453 108.47 64.229004 112.538 61.841003C 116.584 59.429005 120.546005 56.926003 124.235 54.096004C 127.959 51.317005 131.417 48.221004 134.442 44.737003C 137.446 41.232002 139.935 37.279003 141.61101 32.733C 141.46701 37.602 139.535 42.410004 136.75201 46.488003C 133.98001 50.616 130.36201 54.074 126.47601 57.055004C 122.53701 59.981003 118.304016 62.458004 113.85401 64.41C 109.418015 66.37601 104.78701 67.908005 100.013016 68.717zM109.755 48.79L111.883995 46.657L113.907 44.437C 114.604996 43.718 115.211 42.928 115.868996 42.178C 116.54199 41.437 117.13 40.636 117.717995 39.837C 118.301994 39.038002 118.993 38.294003 119.495995 37.444C 120.020996 36.605 120.576996 35.782 121.147995 34.96C 123.186 31.540998 124.827995 27.924 126.104 23.911999C 126.377 28.095999 125.418 32.384 123.714 36.308C 121.954994 40.218 119.449 43.721 116.669 46.918C 113.818 50.061 110.616 52.833 107.172 55.23C 103.729 57.617 100.071 59.714 96.11 61.11C 99.286 58.392002 102.367004 55.707 105.37 52.975C 106.857 51.593 108.347 50.227997 109.755005 48.789997zM108.521996 27.321001C 108.36099 28.944 108.065994 30.566002 107.573 32.094C 106.634995 35.179 105.296 38.081 103.736 40.824C 102.185 43.576 100.388 46.162003 98.438 48.623C 96.48701 51.081 94.373 53.415 91.931 55.477C 93.128 52.513 94.56 49.751 96.028 47.032C 97.498 44.314003 99.005 41.643 100.507 38.992C 101.996 36.334 103.519005 33.712 104.87701 31.03C 106.17701 28.315 107.59901 25.692001 107.71801 22.519001C 108.52001 23.949001 108.57001 25.685001 108.52201 27.321001zM55.912994 120.753C 54.653996 119.386 53.399994 118.015 52.196995 116.597C 50.637993 114.768 49.155994 112.882 47.777996 110.918C 46.414997 108.947 45.098995 106.917 44.262997 104.623C 44.494995 107.067 45.279995 109.456 46.130997 111.775C 46.998997 114.1 47.994995 116.380005 49.074997 118.609C 49.923996 120.372 50.837997 122.104004 51.760998 123.83C 53.061996 127.452 53.693996 130.229 53.224 130.788C 50.387 130.788 42.005997 121.07099 38.245 114.967995C 35.685997 110.81899 36.729 105.045 37.037 103.633995C 38.091 102.87499 41.397 100.256996 41.476997 97.218994C 41.777996 86.00299 32.329 68.548996 31.232998 66.564995C 31.107998 65.548 31.003998 64.368996 30.936998 63.135994C 30.984999 63.105995 31.033998 63.080994 31.082998 63.049995L31.082998 63.049995L30.92 62.846C 30.827 60.964 30.827 58.976 30.982 57.217L30.982 57.217L30.983 57.217L30.982 57.214C 31.174 55.046 31.602001 53.234 32.397 52.444C 35.321 49.537 35.41 49.504 37.206 50.848C 38.484 51.807 37.483 56.813 36.366 60.08C 35.265 60.874 31.640001 63.749 32.681 66.524C 33.767 69.423004 43.136 69.346 46.182 68.793C 46.933 68.658 48.926 68.296 48.926 66.88C 48.926 64.869995 44.501 61.999996 41.635 60.352997C 41.341 59.339996 40.556 56.073997 41.716 53.288C 42.986 50.239998 48.92 47.656998 56.147 47.006996C 64.599 46.247997 90.379 50.127995 97.848 77.013C 98.852 80.628 99.192 84.113 99.033 87.463C 97.268 86.021996 95.38699 84.874 93.459 83.879C 90.88 82.577995 88.179 81.602 85.410995 80.986C 82.669 80.409 79.713 80.109 77.088 81.021C 79.836 80.732 82.43 81.65 84.82 82.747C 87.21 83.888 89.441 85.333 91.438 86.996C 93.41801 88.665 95.201004 90.552 96.454 92.545C 97.056 93.465 97.476006 94.427 97.712006 95.298996C 93.14101 111.059 78.15501 123.045 69.80501 129.715C 69.16401 130.22699 68.57801 130.696 68.02501 131.14299L68.02501 131.14299L66.87001 130.95499zM121.311 121.415C 122.435 122.815 122.76199 124.648 123.018 126.395004C 123.195 128.173 123.126 130.029 122.589 131.85501C 121.59499 135.50401 118.339 139.06502 113.828995 139.16801C 111.704994 139.21101 109.76299 138.58002 108.145996 137.68602C 106.506 136.79301 105.024994 135.75803 103.741 134.53502C 101.125 132.15602 98.974 129.38902 97.398994 126.290016C 100.144 128.39601 102.77699 130.47601 105.507996 132.25201C 106.883995 133.11502 108.243 133.96202 109.659 134.52202C 111.049995 135.15002 112.465996 135.50302 113.71999 135.45702C 114.37599 135.50801 114.909996 135.28401 115.51799 135.12001L115.51799 135.12001L116.44099 134.69301C 116.72799 134.51901 116.985985 134.30801 117.27998 134.13701C 118.38198 133.35301 119.19798 132.18501 119.87099 130.85101C 120.500984 129.50002 120.94899 127.96401 121.193985 126.36401C 121.43799 124.764015 121.64699 123.08102 121.31098 121.415016M79.455 25.177C 79.39 24.241 79.344 23.339 78.653 22.519001C 79.197 22.546001 79.734 22.862001 80.16 23.259C 80.57101 23.659 80.908005 24.137001 81.189 24.613C 81.722 25.592001 82.107 26.614 82.367004 27.643002C 82.887 29.704002 83.049 31.774002 83.01601 33.817C 82.98201 35.863003 82.73801 37.885002 82.30201 39.875C 81.83301 41.858 81.25901 43.836998 80.16901 45.693C 79.311005 41.563 79.26301 37.648003 79.30301 33.757L79.30301 33.757L79.46801 27.996C 79.48101 27.049 79.53001 26.098 79.45501 25.177M70.57401 23.912C 71.721016 25.564001 72.488014 27.299 73.16301 29.053001C 73.81501 30.811 74.32701 32.600002 74.711006 34.416C 75.09601 36.231 75.35801 38.072 75.479004 39.944C 75.576004 41.821 75.586006 43.717 75.217 45.693C 74.073006 44.039 73.309006 42.304 72.632 40.551003C 71.979004 38.792004 71.468 37.004 71.079 35.189003C 70.689 33.375004 70.427 31.533003 70.306 29.662003C 70.207 27.785002 70.2 25.889002 70.574 23.912003M-20.733 10.186C -19.883999 11.436 -18.904 12.611 -17.737 13.589C -16.394 14.715 -14.8359995 15.629 -13.115 16.046C -11.401 16.482 -9.523 16.286 -7.8929996 15.476999C -9.443 16.421999 -11.3619995 16.806 -13.202999 16.501999C -15.047999 16.22 -16.779999 15.395999 -18.303999 14.324999C -19.647 13.380999 -20.811998 12.205999 -21.848999 10.920999C -24.946999 12.489999 -26.404999 14.380999 -27.065998 16.022999C -29.158998 15.6259985 -32.309 15.156999 -35.183 15.176999C -33.470997 16.761 -30.170998 18.505999 -27.551998 19.755C -27.550999 19.772 -27.547998 19.797998 -27.547998 19.810999C -27.547998 21.047998 -19.809998 34.357998 -9.904999 27.549C 9.536743E-07 20.739 32.501 26.619999 39.620003 28.787C 46.74 30.954 60.668003 30.334002 62.526 30.954C 64.383 31.573 71.192 40.24 67.478004 39.311C 60.668003 33.43 44.070004 32.811 41.903004 34.358C 39.736004 35.906002 36.641003 40.07 36.332005 42.237003C 36.256004 42.766003 35.857006 43.359005 35.303005 43.956005C 34.506004 44.058006 33.530006 43.850006 32.574005 43.334003C 31.313005 42.667004 30.139006 41.604004 29.153006 40.386C 28.166006 39.161003 27.343006 37.760002 26.778006 36.245003C 26.217005 34.733 25.915005 33.081 26.156006 31.418003C 25.609005 33.009003 25.586006 34.785004 25.879005 36.480003C 26.175005 38.185005 26.765005 39.846004 27.601006 41.405003C 28.445005 42.958004 29.523006 44.436 31.018005 45.645004C 31.379005 45.938004 31.784006 46.219006 32.224007 46.470005C 31.174007 47.185005 30.335007 47.668007 30.335007 47.668007C 30.335007 47.668007 30.261007 47.938007 30.145006 48.38001C 29.905006 48.362007 29.656006 48.32801 29.396006 48.25901C 28.484005 48.10001 27.516006 47.77001 26.582006 47.36801C 24.698006 46.567013 22.869007 45.485012 21.151007 44.248013C 19.450006 42.98601 17.852007 41.55601 16.508007 39.907013C 15.217007 38.27101 13.998007 36.323013 14.238007 34.106014C 13.670007 36.277016 14.637007 38.553013 15.745007 40.436012C 16.899006 42.35501 18.351006 44.082012 19.947006 45.66201C 21.567007 47.21901 23.329006 48.64601 25.313007 49.84801C 26.306007 50.449013 27.352007 50.99701 28.542007 51.39501L28.542007 51.39501L29.332008 51.65401C 29.16401 52.367012 28.98701 53.14601 28.808008 53.96601C 27.397009 54.249012 25.497007 54.09201 23.752008 53.68801C 21.565008 53.192013 19.381008 52.414013 17.290009 51.435013C 15.208009 50.436012 13.192009 49.256012 11.380009 47.80601C 9.622008 46.352013 7.8610086 44.609013 7.4290085 42.23701C 7.5390086 44.66001 9.128009 46.75801 10.750009 48.48701C 12.428009 50.235012 14.352009 51.73001 16.388008 53.05801C 18.438007 54.36601 20.617008 55.492012 22.961008 56.36001C 23.542007 56.58701 24.139008 56.78801 24.763008 56.94101C 25.373009 57.12401 26.001009 57.27601 26.666008 57.361008C 27.118008 57.452007 27.599009 57.495007 28.093008 57.515007C 27.866009 58.761005 27.671007 60.011005 27.522009 61.205006C 25.752008 62.577007 23.60001 63.657005 21.380009 63.904007C 19.994009 64.05101 18.55601 63.802006 17.30901 63.03301C 16.05401 62.272007 15.061009 61.064007 14.238009 59.74001C 14.78301 61.18901 15.523009 62.639008 16.74901 63.77401C 17.96001 64.91701 19.65001 65.60401 21.35901 65.76101C 23.076012 65.93101 24.79301 65.66801 26.41301 65.19001C 26.70001 65.10301 26.98001 65.00201 27.26101 64.90401C 27.26301 65.17601 27.262009 65.451004 27.27801 65.699005C 27.69701 72.479004 31.22401 72.199005 33.19701 81.994C 35.63501 93.724 31.72701 105.20801 33.12001 111.926C 33.77401 117.499 41.02801 127.406006 46.88401 132.133C 46.21701 133.513 44.78501 135.05899 43.05601 136.13899C 40.95501 137.487 38.41901 138.364 35.80701 138.51399C 33.19701 138.67499 30.486012 138.051 28.136011 136.568C 25.770012 135.099 23.851011 132.85599 22.28701 130.342C 23.29201 133.10399 24.72201 135.84099 26.99401 138.03299C 29.23901 140.23299 32.31501 141.73 35.57801 142.22198C 38.84501 142.72699 42.249012 142.35098 45.449013 141.16998C 46.48701 140.76498 47.52701 140.27898 48.537014 139.69098C 48.546013 140.02798 48.565014 140.36198 48.546013 140.70598C 48.43101 142.86798 47.734013 145.12898 46.455013 147.14598C 45.18001 149.15997 43.329014 150.93398 41.014015 152.04797C 38.715015 153.16898 35.905014 153.56897 33.120014 152.90997C 35.530014 154.42998 38.633015 155.11897 41.738014 154.73798C 44.847015 154.37598 47.905014 153.03598 50.489014 150.98997C 51.022015 150.56798 51.524014 150.09697 52.018013 149.61598C 52.515015 151.14499 53.071014 152.64598 53.690014 154.11497C 56.303013 160.30498 59.905014 166.04498 64.527016 170.84798C 69.11902 175.65598 74.875015 179.37997 81.10301 181.28798C 84.21101 182.24998 87.40901 182.78798 90.59001 182.92998C 93.779015 183.03297 96.93001 182.75497 100.013016 182.23798C 96.88101 182.29398 93.77202 182.09798 90.74802 181.54597C 87.73002 180.95497 84.82301 179.99597 82.11802 178.69298C 76.694016 176.09097 72.16902 172.05197 68.79402 167.26498C 68.76902 167.22998 68.75102 167.19098 68.72502 167.15599C 72.40302 171.11398 77.067024 173.88399 81.747025 175.55899C 87.31902 177.609 93.00002 178.351 98.55502 178.65298C 104.08502 178.92099 109.69702 178.69199 115.108025 177.85399C 120.53102 177.077 125.80902 175.88098 131.03203 174.58199C 141.46803 171.94499 151.70203 168.83798 161.96703 165.80598C 151.45403 167.78499 140.93402 169.84299 130.40303 171.39299C 125.49703 172.107 120.60003 172.68 115.74003 172.93298C 124.706024 171.71599 134.31802 168.69699 144.39703 163.27898C 186.33904 129.87798 194.07904 147.18298 194.07904 147.18298C 192.68404 136.04698 178.91205 134.36398 178.91205 134.36398C 177.98206 127.39899 203.36404 112.05098 202.89905 104.622986C 190.13005 111.92599 188.79105 102.16898 188.79105 102.16898C 190.01505 96.22698 202.50105 84.750984 207.07904 84.27098C 202.89905 79.16398 192.22005 87.28898 190.82904 84.50298C 189.43404 81.71698 199.99704 53.931984 217.29204 54.787983C 214.97104 50.14498 195.93504 54.787983 195.93504 54.787983C 209.24605 32.500984 253.59103 -5.872017 259.07703 -8.827019C 268.39804 -13.8500185 290.34302 -25.290018 302.54202 -39.71702C 308.769 -45.51502 316.37903 -49.62502 324.80902 -50.77202C 334.60004 -52.204018 345.51102 -49.61902 353.333 -43.19602C 357.15402 -40.04202 360.15402 -35.68202 360.03 -31.358017C 360.032 -30.820017 359.947 -30.292017 359.845 -29.764017C 359.733 -29.212017 359.567 -28.625017 359.372 -28.070017C 358.97202 -26.953016 358.432 -25.869017 357.746 -24.854017C 356.372 -22.820017 354.445 -21.060017 352.221 -19.678017C 347.778 -16.961018 342.13202 -15.480017 336.84702 -16.407017C 334.26602 -16.886017 331.66803 -18.217016 330.716 -20.741016C 330.691 -20.803017 330.681 -20.868017 330.66 -20.931017C 332.745 -26.888016 342.944 -38.13202 335.81 -47.78602C 321.73898 -42.68502 324.76 -28.457018 329.843 -20.146019C 330.25897 -18.758018 331.13397 -17.497019 332.25998 -16.57502C 333.46698 -15.58502 334.878 -14.89202 336.33197 -14.43302C 339.25098 -13.51202 342.32996 -13.36002 345.33597 -13.663019C 348.34998 -13.977019 351.33096 -14.775019 354.14496 -16.081018C 359.70795 -18.65202 364.92395 -23.637018 366.08295 -30.779018C 366.59094 -34.35402 365.73795 -37.89602 364.33594 -40.92102C 362.91693 -43.97002 360.93094 -46.60602 358.69495 -48.91002C 349.62494 -58.011017 336.78793 -62.523018 323.87894 -62.080017C 321.37494 -61.99402 318.87094 -61.70202 316.39594 -61.229015C 336.84995 -100.444016 333.05792 -136.81302 333.05792 -136.81302C 333.05792 -141.76602 342.03592 -146.71802 344.50992 -151.36201C 346.9869 -156.00401 345.38892 -179.43602 355.65393 -193.768C 363.85693 -205.22 361.95993 -213.461 355.76993 -213.461C 355.76993 -213.461 350.19992 -218.91699 343.05994 -215.66699C 338.80893 -218.96999 331.27792 -215.435 332.90292 -210.01799C 333.13492 -207.21999 337.5689 -199.66699 333.17593 -181.08499C 327.24594 -155.98799 317.99493 -148.385 316.65292 -144.862C 315.42493 -141.636 305.7719 -127.2 294.1899 -112.328C 293.22992 -109.670006 291.94492 -107.137 290.55692 -104.693C 288.69592 -101.382 286.4439 -98.342 284.1549 -95.348C 281.8599 -92.351 279.38892 -89.509 276.8269 -86.76C 271.7259 -81.234 266.27692 -76.063 260.6099 -71.162C 254.9619 -66.214005 249.1359 -61.571003 243.0129 -57.124L243.0129 -57.124L242.25989 -56.577L241.2349 -56.63C 232.46889 -57.085003 223.64389 -56.241 215.0999 -54.042C 206.5679 -51.838 198.2479 -48.55 190.5259 -44.114C 182.78589 -39.728996 175.5239 -34.407997 169.05289 -28.220999C 166.11389 -25.401999 163.32889 -22.373999 160.85788 -19.108997C 160.10588 -18.115997 159.38388 -17.098997 158.69987 -16.056997C 156.70587 -13.019998 155.00587 -9.785997 153.77388 -6.2929974C 154.26888 -9.042997 155.19188 -11.703997 156.33188 -14.279997C 157.05688 -15.917997 157.85388 -17.531998 158.74487 -19.087997C 158.91788 -19.382998 159.11588 -19.664997 159.29688 -19.956997C 160.33188 -21.622997 161.44987 -23.242996 162.56688 -24.864998C 164.02788 -26.643997 165.37288 -28.547998 166.94688 -30.237999C 173.10388 -37.149 180.32088 -43.097 188.17888 -48.061996C 196.06688 -52.975 204.68088 -56.822 213.72488 -59.250996C 222.43188 -61.582996 231.53488 -62.668995 240.60489 -62.135994C 246.28189 -66.218994 251.8839 -70.58499 257.3609 -75.01199C 257.8469 -75.408 258.3099 -75.829994 258.7929 -76.229C 261.1489 -78.175995 263.49292 -80.13799 265.7749 -82.163994C 268.5469 -84.58199 271.2779 -87.048996 273.9039 -89.61499C 279.1549 -94.74199 284.2269 -100.08199 288.4499 -106.04099C 289.5889 -107.660995 290.64688 -109.33699 291.5969 -111.06999C 289.8679 -116.82099 289.2949 -124.81999 289.7229 -129.30699C 290.1879 -134.18199 298.7769 -143.237 299.2429 -143.933C 299.7059 -144.629 300.3959 -162.931 302.14288 -171.791C 303.33087 -177.808 305.71887 -191.375 304.8899 -194.386C 302.78888 -202.03 300.3779 -203.019 294.93588 -202.574C 292.2009 -204.601 287.0919 -203.78801 286.31888 -202.892C 278.8549 -202.30699 276.88388 -198.48799 280.1269 -194.851C 285.2349 -189.125 284.8479 -182.16 287.16888 -172.487C 291.11188 -156.062 261.2469 -124.123 259.3889 -122.575C 257.6399 -121.118 234.63588 -84.550995 234.27489 -73.881996C 215.41989 -71.589 190.54388 -65.653 172.95288 -48.054996C 161.45187 -36.550995 155.85788 -28.781996 152.20688 -23.860996C 145.01688 -27.719995 138.83388 -30.269997 131.70288 -28.649996C 121.56988 -26.347996 76.27088 -22.386995 60.35888 -32.500996C 44.44788 -42.613995 43.10888 -50.156998 33.53988 -50.448997C 33.15188 -50.46 32.659878 -50.343 32.12388 -50.182C 30.30288 -50.215 27.036879 -50.258 24.211878 -50.214C 23.591877 -50.204002 22.993877 -50.190002 22.436878 -50.171C 21.864878 -50.151 21.332878 -50.126003 20.870878 -50.094C 21.511879 -49.735 22.306879 -49.321003 23.174877 -48.886C 23.997877 -48.473003 24.884876 -48.042 25.778877 -47.616C 26.579878 -46.492 27.474876 -45.428 28.537878 -44.537003C 29.881878 -43.411003 31.438877 -42.498 33.159878 -42.082C 34.87388 -41.645 36.751877 -41.84 38.381878 -42.649002C 36.83188 -41.705 34.912876 -41.320004 33.072876 -41.625004C 31.226875 -41.907005 29.494877 -42.731003 27.971876 -43.801003C 26.441875 -44.876003 25.108875 -46.217003 23.978876 -47.72C 23.943876 -47.766003 23.914877 -47.815002 23.880877 -47.862C 23.481876 -47.843998 23.082876 -47.824 22.684877 -47.86C 20.462877 -48.063 17.343878 -46.801003 14.892878 -45.132C 13.503878 -45.519 10.908877 -46.227 8.401877 -46.83C 7.8308773 -46.968002 7.2658772 -47.100002 6.7208776 -47.221C 5.8278775 -47.418 4.9908776 -47.588 4.2818775 -47.705C 5.1108775 -46.822002 6.192878 -45.812 7.3248777 -44.809002C 8.576878 -43.7 9.884878 -42.604004 10.992878 -41.699C 11.750878 -40.673 12.582878 -39.698 13.564878 -38.875C 14.908878 -37.749 16.465878 -36.835 18.186878 -36.418C 19.900879 -35.982 21.778877 -36.177998 23.408878 -36.987C 21.85888 -36.042 19.939878 -35.658 18.099878 -35.961998C 16.253878 -36.244 14.521878 -37.068996 12.9988785 -38.139C 11.575878 -39.139 10.3408785 -40.386 9.262878 -41.763C 5.8528786 -40.898 3.9288783 -39.393 2.8468785 -37.958C 0.82687855 -38.181 -2.9231215 -38.679 -5.727122 -39.539C -3.969122 -37.358 -0.52012205 -34.712 1.459878 -33.274002C 2.085878 -29.965002 5.5088778 -21.351002 14.624878 -24.608002C 25.311878 -28.426003 54.21188 -12.569002 60.183876 -8.870002C 63.882877 -6.579002 70.21887 -4.632002 74.87788 -3.2400017C 59.675 0.83 43.123 3.538 33.43 0.464C 14.393 -5.571 10.93 -8.85 1.054 -6.552C 0.24000001 -6.362 -1.001 -5.638 -2.46 -4.729C -4.476 -4.427 -8.955999 -3.746 -12.694 -3.1220002C -13.253 -3.0290003 -13.7960005 -2.9370003 -14.31 -2.8480003C -15.568001 -2.6290002 -16.665 -2.4270003 -17.432001 -2.2630002C -16.225 -1.7950003 -14.585001 -1.2580003 -12.912001 -0.7440002C -12.181001 -0.5200002 -11.446001 -0.3000002 -10.735001 -0.0910002C -10.063001 0.7579998 -9.337001 1.5669998 -8.504001 2.2649999C -7.1610007 3.3909998 -5.6040006 4.305 -3.8820004 4.7209997C -2.1680005 5.1569996 -0.29000044 4.9609995 1.3399997 4.153C -0.21000028 5.097 -2.1290004 5.481 -3.9700003 5.177C -5.8150005 4.896 -7.547 4.071 -9.071 3.001C -10.159 2.236 -11.111 1.3019999 -11.998 0.30499983C -14.214001 1.3569999 -16.909 3.1879997 -18.739 5.559C -19.821001 5.496 -21.349 5.404 -22.984001 5.299C -23.456001 5.2689996 -23.934002 5.237 -24.413002 5.205C -26.271002 5.08 -28.120003 4.9449997 -29.460003 4.8199997C -27.957003 6.0189996 -25.544003 7.483 -23.415003 8.698C -22.417004 9.267 -21.482002 9.781 -20.733004 10.186M51.753 54.577C 50.315998 54.343998 48.856 54.017 47.591 53.221C 49.042 53.269 50.443 53.176003 51.831 53.135002C 53.217003 53.059002 54.586002 52.991 55.926003 52.808002C 57.265003 52.640003 58.567 52.361004 59.804 51.925003C 61.037003 51.471004 62.188 50.819004 63.203 49.738003C 62.888 51.196003 61.758 52.455 60.444 53.225002C 59.126 54.030003 57.634 54.432003 56.163002 54.648003C 54.683002 54.813004 53.202003 54.800003 51.753002 54.577003M53.734 59.602005C 51.501 58.957005 49.223 58.253006 47.301003 56.877007C 49.514004 57.540005 51.791 57.819008 54.029003 58.188007C 56.276005 58.501007 58.522003 58.795006 60.763004 58.876007C 62.999004 58.993008 65.233 58.958008 67.411 58.61701C 69.575005 58.257008 71.708 57.51201 73.359 55.834007C 72.35 58.003006 70.025 59.398006 67.744 60.027008C 65.426 60.703007 63.022003 60.820007 60.669003 60.730007C 58.312004 60.605007 55.99 60.219006 53.734 59.60201M62.184002 67.64101C 59.203003 67.313 56.276 66.59801 53.523003 65.44601C 52.138004 64.89901 50.812004 64.19301 49.562004 63.376007C 48.376003 62.511005 47.051003 61.632008 46.430004 60.243008C 47.381004 61.36501 48.706005 62.000008 50.004005 62.586006C 50.657005 62.881004 51.305004 63.175007 51.989006 63.398006C 52.656006 63.654007 53.327007 63.897007 54.018005 64.089005C 56.749004 64.91901 59.546005 65.519005 62.366005 65.79401C 65.18301 66.12 68.02901 66.009 70.79101 65.492004C 73.546005 64.94 76.227005 63.914005 78.65301 62.226006C 76.72401 64.454 74.03801 66.073006 71.13601 66.899C 68.23701 67.755005 65.16301 67.952 62.18401 67.641M76.887 102.456L53.859 89.242L62.526 99.36C 62.526 99.36 63.455 108.337 65.174 111.34C 66.893005 114.343994 77.074005 104.932 76.887 102.45599" stroke="none" fill="#3bb77e" fill-rule="nonzero"/>
						</g>
					</g>
				</g>
			</g>
		</g>
	</g>
</g>
</svg>