<?xml version="1.0" standalone="no"?>
<!DOCTYPE svg PUBLIC "-//W3C//DTD SVG 20010904//EN"
 "http://www.w3.org/TR/2001/REC-SVG-20010904/DTD/svg10.dtd">
<svg version="1.0" xmlns="http://www.w3.org/2000/svg"
 width="250.000000pt" height="250.000000pt" viewBox="0 0 250.000000 250.000000"
 preserveAspectRatio="xMidYMid meet">

<g transform="translate(0.000000,250.000000) scale(0.100000,-0.100000)"
fill="#000000" stroke="none">
<path d="M1055 2356 c-301 -58 -572 -233 -733 -476 -39 -58 -42 -65 -27 -77
15 -10 23 -4 58 50 22 34 88 109 146 167 162 160 320 245 542 290 143 30 349
24 487 -14 186 -52 352 -148 485 -283 199 -201 302 -434 314 -709 3 -72 3
-148 -1 -168 l-7 -36 -578 0 c-519 0 -579 -2 -585 -16 -3 -9 -6 -18 -6 -20 0
-2 272 -4 604 -4 l604 0 8 67 c12 114 -2 297 -30 408 -31 119 -114 292 -185
386 -63 83 -189 203 -271 259 -92 63 -236 128 -347 157 -121 31 -363 41 -478
19z"/>
<path d="M134 1373 c-12 -112 2 -297 30 -405 61 -239 215 -468 415 -619 95
-72 268 -154 386 -185 133 -35 339 -43 471 -20 243 42 455 155 625 333 79 83
162 199 153 214 -12 20 -33 6 -69 -48 -21 -32 -85 -105 -144 -163 -163 -160
-320 -245 -542 -290 -143 -30 -338 -24 -483 14 -373 98 -675 400 -773 775 -26
101 -42 313 -29 385 l7 36 578 0 c519 0 579 2 585 16 3 9 6 18 6 20 0 2 -272
4 -604 4 l-604 0 -8 -67z"/>
</g>
</svg>
