<?xml version="1.0" encoding="UTF-8" standalone="no"?>
<!-- Created with Inkscape (http://www.inkscape.org/) -->

<svg
   version="1.1"
   id="svg42910"
   width="656"
   height="656"
   viewBox="0 0 656 656"
   sodipodi:docname="lion-jumps-vector-pdv.svg"
   inkscape:version="1.2 (dc2aedaf03, 2022-05-15)"
   xmlns:inkscape="http://www.inkscape.org/namespaces/inkscape"
   xmlns:sodipodi="http://sodipodi.sourceforge.net/DTD/sodipodi-0.dtd"
   xmlns="http://www.w3.org/2000/svg"
   xmlns:svg="http://www.w3.org/2000/svg">
  <defs
     id="defs42914">
    <clipPath
       clipPathUnits="userSpaceOnUse"
       id="clipPath42926">
      <path
         d="M 0,492 H 492 V 0 H 0 Z"
         id="path42924" />
    </clipPath>
  </defs>
  <sodipodi:namedview
     id="namedview42912"
     pagecolor="#ffffff"
     bordercolor="#000000"
     borderopacity="0.25"
     inkscape:showpageshadow="2"
     inkscape:pageopacity="0.0"
     inkscape:pagecheckerboard="0"
     inkscape:deskcolor="#d1d1d1"
     showgrid="false"
     inkscape:zoom="1.2759146"
     inkscape:cx="328"
     inkscape:cy="327.60812"
     inkscape:window-width="1920"
     inkscape:window-height="1017"
     inkscape:window-x="-8"
     inkscape:window-y="-8"
     inkscape:window-maximized="1"
     inkscape:current-layer="g42918">
    <inkscape:page
       x="0"
       y="0"
       id="page42916"
       width="656"
       height="656" />
  </sodipodi:namedview>
  <g
     id="g42918"
     inkscape:groupmode="layer"
     inkscape:label="Page 1"
     transform="matrix(1.3333333,0,0,-1.3333333,0,656)">
    <g
       id="g42920">
      <g
         id="g42922"
         clip-path="url(#clipPath42926)">
        <g
           id="g42928"
           transform="translate(59.063,275.5464)">
          <path
             d="m 0,0 c 1.223,-1.767 3.585,-2.378 5.68,-2.359 2.14,0.026 4.228,0.433 6.273,0.891 4.089,0.953 8.042,2.221 12.029,3.221 3.97,1.048 7.956,1.923 11.952,2.344 1.975,0.225 4.033,0.267 6.075,0.363 2.042,0.059 4.081,0.246 6.118,0.199 8.152,-0.008 16.256,-0.691 24.131,-2.434 3.537,-0.746 7.007,-1.737 10.441,-2.873 4.231,-1.402 8.403,-3.039 12.533,-4.882 7.52,-3.183 15.122,-7.08 23.699,-8.949 2.163,-0.357 4.305,-0.813 6.514,-0.853 2.176,-0.161 4.409,-0.247 6.689,0.1 2.257,0.317 4.57,0.862 6.695,1.982 2.122,1.1 4.014,2.668 5.483,4.49 0.595,0.745 1.111,1.519 1.589,2.31 1.891,3.123 2.946,6.546 3.631,9.874 0.869,4.203 1.252,8.382 1.594,12.531 0.609,8.3 0.937,16.528 2.648,24.671 -2.902,-7.821 -4,-16.214 -5.35,-24.349 -0.661,-4.073 -1.322,-8.138 -2.424,-11.992 -0.829,-2.953 -1.904,-5.822 -3.458,-8.214 -0.467,-0.717 -0.965,-1.403 -1.527,-2.023 -2.393,-2.707 -5.744,-4.111 -9.453,-4.445 -1.835,-0.231 -3.769,-0.096 -5.714,0.111 -1.947,0.086 -3.856,0.573 -5.772,0.941 -7.643,1.825 -14.958,5.535 -22.615,8.919 C 95.689,0.342 93.893,1.083 92.078,1.795 86.029,4.167 79.757,6.168 73.318,7.393 64.947,8.922 56.422,9.524 48.002,9.005 45.896,8.941 43.808,8.642 41.713,8.471 39.624,8.259 37.535,8.127 35.412,7.71 31.199,6.949 27.133,5.749 23.182,4.369 19.237,2.961 15.397,1.384 11.527,0.017 9.592,-0.654 7.633,-1.26 5.631,-1.519 3.673,-1.787 1.466,-1.57 0,0 m 160.416,44.02 c -1.636,5.554 -5.527,10.299 -9.851,14.134 -4.371,3.879 -9.391,6.892 -14.581,9.439 -5.234,2.469 -10.692,4.459 -16.34,5.709 -5.601,1.215 -11.554,1.974 -17.188,0.677 5.713,-0.253 11.103,-1.775 16.426,-3.462 5.297,-1.768 10.492,-3.831 15.492,-6.268 2.535,-1.151 4.964,-2.503 7.376,-3.873 l 3.565,-2.146 c 1.127,-0.799 2.274,-1.572 3.436,-2.337 4.455,-3.279 8.615,-7.009 11.665,-11.873 m 17.876,11.457 c -3.071,6.169 -7.883,11.51 -13.534,15.633 -5.644,4.172 -12.099,7.14 -18.74,9.255 -6.671,2.061 -13.565,3.231 -20.47,3.674 -6.898,0.455 -13.854,0.187 -20.616,-1.084 6.865,-0.265 13.627,-0.808 20.317,-1.788 6.673,-1.014 13.295,-2.301 19.668,-4.347 6.388,-1.971 12.54,-4.632 18.218,-8.112 5.671,-3.499 10.778,-7.909 15.157,-13.231 m 13.928,5.633 c -3.245,7.612 -9.082,14.068 -15.833,18.976 -6.768,4.965 -14.486,8.492 -22.447,10.979 -7.994,2.409 -16.287,3.815 -24.616,3.967 -8.283,0.153 -16.779,-0.788 -24.392,-4.029 8.041,1.752 16.195,1.818 24.238,1.145 8.04,-0.729 16.003,-2.243 23.679,-4.632 7.689,-2.337 15.109,-5.558 21.902,-9.823 6.769,-4.289 12.862,-9.745 17.469,-16.583 m -22.018,37.425 c -6.786,4.035 -14.451,6.321 -22.146,7.59 -7.729,1.182 -15.576,1.338 -23.294,0.481 -3.86,-0.409 -7.687,-1.098 -11.445,-2.038 -3.739,-0.984 -7.464,-2.168 -10.861,-4.002 3.694,1.069 7.436,1.745 11.204,2.221 3.759,0.505 7.54,0.785 11.313,0.94 7.548,0.251 15.107,-0.064 22.502,-1.269 3.703,-0.558 7.36,-1.372 10.936,-2.438 3.592,-1.015 7.06,-2.406 10.411,-4.034 6.681,-3.302 12.69,-7.985 17.517,-13.992 -3.516,6.868 -9.351,12.59 -16.137,16.541 m -1.574,14.999 c -7.436,3.74 -15.659,5.551 -23.833,6.324 -8.204,0.701 -16.459,0.341 -24.524,-1.067 -4.035,-0.685 -8.021,-1.654 -11.91,-2.918 -3.84,-1.354 -7.738,-2.852 -10.962,-5.37 3.631,1.803 7.538,2.768 11.436,3.619 3.91,0.827 7.869,1.383 11.831,1.808 7.927,0.792 15.916,0.977 23.798,0.231 7.873,-0.684 15.695,-2.25 22.959,-5.264 7.253,-3.002 13.89,-7.612 18.916,-14.013 -3.707,7.267 -10.29,13.011 -17.711,16.65 m 15.789,1.596 c -0.755,1.213 -1.631,2.382 -2.639,3.402 -2.007,2.061 -4.318,3.787 -6.754,5.254 -4.875,2.958 -10.203,4.982 -15.625,6.526 -5.445,1.473 -11.041,2.396 -16.683,2.58 -5.608,0.184 -11.389,-0.312 -16.612,-2.377 5.549,0.552 10.985,0.201 16.377,-0.5 5.379,-0.758 10.719,-1.796 15.932,-3.282 5.223,-1.422 10.355,-3.208 15.229,-5.496 2.419,-1.173 4.788,-2.464 6.927,-4.07 2.164,-1.574 4.108,-3.478 5.267,-6.037 -0.186,1.388 -0.711,2.743 -1.419,4 m -27.842,25.551 c -8.473,3.652 -17.64,5.893 -26.957,6.333 -9.307,0.341 -18.744,-1.132 -27.336,-4.743 -4.304,-1.763 -8.371,-4.087 -12.05,-6.908 -1.814,-1.443 -3.571,-2.962 -5.101,-4.705 -1.502,-1.729 -2.961,-3.662 -3.476,-5.916 0.886,2.111 2.545,3.704 4.199,5.191 1.69,1.469 3.521,2.767 5.417,3.942 3.782,2.373 7.852,4.245 12.045,5.7 8.395,2.898 17.303,4.12 26.146,3.73 4.43,-0.127 8.835,-0.786 13.185,-1.68 4.379,-0.816 8.631,-2.21 12.868,-3.642 8.421,-3.058 16.517,-7.115 24.402,-11.693 -7,5.845 -14.869,10.729 -23.342,14.391 m -13.429,14.264 c -4.269,1.426 -8.679,2.44 -13.154,3.136 -4.491,0.586 -9.047,0.745 -13.583,0.458 -9.066,-0.651 -18.016,-3.309 -25.836,-7.885 -3.919,-2.261 -7.568,-4.973 -10.797,-8.11 -1.608,-1.572 -3.131,-3.232 -4.47,-5.035 -0.663,-0.886 -1.294,-1.803 -1.858,-2.755 -0.564,-0.95 -1.057,-1.937 -1.448,-2.962 -0.01,-0.025 -0.024,-0.05 -0.034,-0.075 0.016,0.027 0.036,0.052 0.052,0.078 0.477,0.792 1.014,1.536 1.583,2.251 0.778,0.979 1.615,1.905 2.482,2.795 1.533,1.557 3.16,3.015 4.889,4.339 3.399,2.718 7.121,4.989 10.973,6.933 7.728,3.848 16.158,6.175 24.728,6.722 4.281,0.33 8.596,0.21 12.884,-0.244 4.294,-0.466 8.53,-1.371 12.749,-2.421 8.386,-2.317 16.511,-5.709 24.46,-9.645 -7.144,5.257 -15.111,9.497 -23.62,12.42 m -33.592,13.801 c -7.398,-0.247 -14.661,-2.369 -21.253,-5.654 -6.047,-3.101 -11.589,-7.18 -16.218,-12.129 -0.393,-0.42 -0.791,-0.835 -1.171,-1.267 -4.819,-5.468 -8.704,-12.143 -9.624,-19.354 2.233,6.251 6.078,11.562 10.555,16.179 0.387,0.398 0.77,0.801 1.166,1.189 5.021,4.852 10.749,8.958 16.963,12.067 6.19,3.149 12.896,5.274 19.795,6.078 6.906,0.79 13.993,0.095 20.856,-2.112 -6.233,3.637 -13.699,5.301 -21.069,5.003 m -29.869,0.064 -1.525,-0.481 -1.46,-0.646 c -0.959,-0.461 -1.987,-0.81 -2.884,-1.391 -3.795,-2.007 -7.079,-4.866 -9.935,-8.033 -0.515,-0.585 -1,-1.195 -1.486,-1.803 -2.181,-2.727 -4.078,-5.676 -5.549,-8.834 -0.411,-0.918 -0.815,-1.854 -1.189,-2.805 -1.191,-3.024 -2.064,-6.198 -1.798,-9.446 0.122,2.105 0.826,4.087 1.58,6.007 0.287,0.705 0.576,1.407 0.89,2.099 0.114,0.25 0.219,0.503 0.346,0.748 0.429,0.942 0.91,1.857 1.437,2.749 0.931,1.638 1.939,3.231 3.011,4.776 1.276,1.841 2.648,3.611 4.142,5.272 2.72,3.075 5.812,5.836 9.282,8.042 3.467,2.218 7.29,3.853 11.349,4.996 -2.078,-0.272 -4.192,-0.569 -6.211,-1.25 M 41.787,38.073 c 3.88,-3.389 22.054,-1.625 24.84,5.803 -12.362,-2.031 -22.054,1.394 -24.84,4.179 -4.411,-2.321 -3.88,-6.593 0,-9.982 m 52.931,-8.055 c -0.177,2.561 -0.698,5.06 -1.479,7.441 -0.785,2.382 -1.796,4.67 -2.991,6.857 -1.199,2.183 -2.581,4.279 -4.352,6.138 0.389,-2.532 1.011,-4.903 1.684,-7.242 0.67,-2.338 1.375,-4.636 2.128,-6.901 0.725,-2.273 1.478,-4.512 2.151,-6.77 0.642,-2.284 1.28,-4.474 1.233,-7.022 1.569,2.117 1.79,5 1.626,7.499 m 5.295,38.699 c 4.275,-2.264 8.457,-4.488 12.525,-6.876 4.046,-2.412 8.008,-4.915 11.697,-7.745 3.724,-2.779 7.182,-5.875 10.207,-9.359 3.004,-3.505 5.493,-7.458 7.169,-12.004 -0.144,4.869 -2.076,9.677 -4.859,13.755 -2.772,4.128 -6.39,7.586 -10.276,10.567 -3.939,2.926 -8.172,5.403 -12.622,7.355 -4.436,1.966 -9.067,3.498 -13.841,4.307 m 9.742,-19.927 2.129,-2.133 2.023,-2.22 c 0.698,-0.719 1.304,-1.509 1.962,-2.259 0.673,-0.741 1.261,-1.542 1.849,-2.341 0.584,-0.799 1.275,-1.543 1.778,-2.393 0.525,-0.839 1.081,-1.662 1.652,-2.484 2.038,-3.419 3.68,-7.036 4.956,-11.048 0.273,4.184 -0.686,8.472 -2.39,12.396 -1.759,3.91 -4.265,7.413 -7.045,10.61 -2.851,3.143 -6.053,5.915 -9.497,8.312 -3.443,2.387 -7.101,4.484 -11.062,5.88 3.176,-2.718 6.257,-5.403 9.26,-8.135 1.487,-1.382 2.977,-2.747 4.385,-4.185 m -1.233,-21.469 c -0.161,1.623 -0.456,3.245 -0.949,4.773 -0.938,3.085 -2.277,5.987 -3.837,8.73 -1.551,2.752 -3.348,5.338 -5.298,7.799 -1.951,2.458 -4.065,4.792 -6.507,6.854 1.197,-2.964 2.629,-5.726 4.097,-8.445 1.47,-2.718 2.977,-5.389 4.479,-8.04 1.489,-2.658 3.012,-5.28 4.37,-7.962 1.3,-2.715 2.722,-5.338 2.841,-8.511 0.802,1.43 0.852,3.166 0.804,4.802 m -52.609,93.432 c -1.259,-1.367 -2.513,-2.738 -3.716,-4.156 -1.559,-1.829 -3.041,-3.715 -4.419,-5.679 -1.363,-1.971 -2.679,-4.001 -3.515,-6.295 0.232,2.444 1.017,4.833 1.868,7.152 0.868,2.325 1.864,4.605 2.944,6.834 0.849,1.763 1.763,3.495 2.686,5.221 1.301,3.622 1.933,6.399 1.463,6.958 -2.837,0 -11.218,-9.717 -14.979,-15.82 -2.559,-4.149 -1.516,-9.923 -1.208,-11.334 1.054,-0.759 4.36,-3.377 4.44,-6.415 0.301,-11.216 -9.148,-28.67 -10.244,-30.654 -0.125,-1.017 -0.229,-2.196 -0.296,-3.429 0.048,-0.03 0.097,-0.055 0.146,-0.086 L 30.92,62.846 c -0.093,-1.882 -0.093,-3.87 0.062,-5.629 h 0.001 l -0.001,-0.003 c 0.192,-2.168 0.62,-3.98 1.415,-4.77 2.924,-2.907 3.013,-2.94 4.809,-1.596 1.278,0.959 0.277,5.965 -0.84,9.232 -1.101,0.794 -4.726,3.669 -3.685,6.444 1.086,2.899 10.455,2.822 13.501,2.269 0.751,-0.135 2.744,-0.497 2.744,-1.913 0,-2.01 -4.425,-4.88 -7.291,-6.527 -0.294,-1.013 -1.079,-4.279 0.081,-7.065 1.27,-3.048 7.204,-5.631 14.431,-6.281 8.452,-0.759 34.232,3.121 41.701,30.006 1.004,3.615 1.344,7.1 1.185,10.45 -1.765,-1.441 -3.646,-2.589 -5.574,-3.584 -2.579,-1.301 -5.28,-2.277 -8.048,-2.893 -2.742,-0.577 -5.698,-0.877 -8.323,0.035 2.748,-0.289 5.342,0.629 7.732,1.726 2.39,1.141 4.621,2.586 6.618,4.249 1.98,1.669 3.763,3.556 5.016,5.549 0.602,0.92 1.022,1.882 1.258,2.754 -4.571,15.76 -19.557,27.746 -27.907,34.416 -0.641,0.512 -1.227,0.981 -1.78,1.428 l -1.155,-0.188 z m 65.398,0.662 c 1.124,1.4 1.451,3.233 1.707,4.98 0.177,1.778 0.108,3.634 -0.429,5.46 -0.994,3.649 -4.25,7.21 -8.76,7.313 -2.124,0.043 -4.066,-0.588 -5.683,-1.482 -1.64,-0.893 -3.121,-1.928 -4.405,-3.151 -2.616,-2.379 -4.767,-5.146 -6.342,-8.245 2.745,2.106 5.378,4.186 8.109,5.962 1.376,0.863 2.735,1.71 4.151,2.27 1.391,0.628 2.807,0.981 4.061,0.935 0.656,0.051 1.19,-0.173 1.798,-0.337 l 0.923,-0.427 c 0.287,-0.174 0.545,-0.385 0.839,-0.556 1.102,-0.784 1.918,-1.952 2.591,-3.286 0.63,-1.351 1.078,-2.887 1.323,-4.487 0.244,-1.6 0.453,-3.283 0.117,-4.949 M 79.455,25.177 c -0.065,-0.936 -0.111,-1.838 -0.802,-2.658 0.544,0.027 1.081,0.343 1.507,0.74 0.411,0.4 0.748,0.878 1.029,1.354 0.533,0.979 0.918,2.001 1.178,3.03 0.52,2.061 0.682,4.131 0.649,6.174 -0.034,2.046 -0.278,4.068 -0.714,6.058 -0.469,1.983 -1.043,3.962 -2.133,5.818 -0.858,-4.13 -0.906,-8.045 -0.866,-11.936 l 0.165,-5.761 c 0.013,-0.947 0.062,-1.898 -0.013,-2.819 m -8.881,-1.265 c 1.147,1.652 1.914,3.387 2.589,5.141 0.652,1.758 1.164,3.547 1.548,5.363 0.385,1.815 0.647,3.656 0.768,5.528 0.097,1.877 0.107,3.773 -0.262,5.749 -1.144,-1.654 -1.908,-3.389 -2.585,-5.142 -0.653,-1.759 -1.164,-3.547 -1.553,-5.362 -0.39,-1.814 -0.652,-3.656 -0.773,-5.527 -0.099,-1.877 -0.106,-3.773 0.268,-5.75 M -20.733,10.186 c 0.849,1.25 1.829,2.425 2.996,3.403 1.343,1.126 2.901,2.04 4.622,2.457 1.714,0.436 3.592,0.24 5.222,-0.569 -1.55,0.945 -3.469,1.329 -5.31,1.025 -1.845,-0.282 -3.577,-1.106 -5.101,-2.177 -1.343,-0.944 -2.508,-2.119 -3.545,-3.404 -3.098,1.569 -4.556,3.46 -5.217,5.102 -2.093,-0.397 -5.243,-0.866 -8.117,-0.846 1.712,1.584 5.012,3.329 7.631,4.578 0.001,0.017 0.004,0.043 0.004,0.056 0,1.237 7.738,14.547 17.643,7.738 9.905,-6.81 42.406,-0.929 49.525,1.238 7.12,2.167 21.048,1.547 22.906,2.167 1.857,0.619 8.666,9.286 4.952,8.357 -6.81,-5.881 -23.408,-6.5 -25.575,-4.953 -2.167,1.548 -5.262,5.712 -5.571,7.879 -0.076,0.529 -0.475,1.122 -1.029,1.719 -0.797,0.102 -1.773,-0.106 -2.729,-0.622 -1.261,-0.667 -2.435,-1.73 -3.421,-2.948 -0.987,-1.225 -1.81,-2.626 -2.375,-4.141 -0.561,-1.512 -0.863,-3.164 -0.622,-4.827 -0.547,1.591 -0.57,3.367 -0.277,5.062 0.296,1.705 0.886,3.366 1.722,4.925 0.844,1.553 1.922,3.031 3.417,4.24 0.361,0.293 0.766,0.574 1.206,0.825 -1.05,0.715 -1.889,1.198 -1.889,1.198 0,0 -0.074,0.27 -0.19,0.712 -0.24,-0.018 -0.489,-0.052 -0.749,-0.121 -0.912,-0.159 -1.88,-0.489 -2.814,-0.891 -1.884,-0.801 -3.713,-1.883 -5.431,-3.12 -1.701,-1.262 -3.299,-2.692 -4.643,-4.341 -1.291,-1.636 -2.51,-3.584 -2.27,-5.801 -0.568,2.171 0.399,4.447 1.507,6.33 1.154,1.919 2.606,3.646 4.202,5.226 1.62,1.557 3.382,2.984 5.366,4.186 0.993,0.601 2.039,1.149 3.229,1.547 l 0.79,0.259 c -0.168,0.713 -0.345,1.492 -0.524,2.312 -1.411,0.283 -3.311,0.126 -5.056,-0.278 -2.187,-0.496 -4.371,-1.274 -6.462,-2.253 -2.082,-0.999 -4.098,-2.179 -5.91,-3.629 -1.758,-1.454 -3.519,-3.197 -3.951,-5.569 0.11,2.423 1.699,4.521 3.321,6.25 1.678,1.748 3.602,3.243 5.638,4.571 2.05,1.308 4.229,2.434 6.573,3.302 0.581,0.227 1.178,0.428 1.802,0.581 0.61,0.183 1.238,0.335 1.903,0.42 0.452,0.091 0.933,0.134 1.427,0.154 -0.227,1.246 -0.422,2.496 -0.571,3.69 -1.77,1.372 -3.922,2.452 -6.142,2.699 -1.386,0.147 -2.824,-0.102 -4.071,-0.871 -1.255,-0.761 -2.248,-1.969 -3.071,-3.293 0.545,1.449 1.285,2.899 2.511,4.034 1.211,1.143 2.901,1.83 4.61,1.987 1.717,0.17 3.434,-0.093 5.054,-0.571 0.287,-0.087 0.567,-0.188 0.848,-0.286 0.002,0.272 0.001,0.547 0.017,0.795 0.419,6.78 3.946,6.5 5.919,16.295 2.438,11.73 -1.47,23.214 -0.077,29.932 0.654,5.573 7.908,15.48 13.764,20.207 -0.667,1.38 -2.099,2.926 -3.828,4.006 -2.101,1.348 -4.637,2.225 -7.249,2.375 -2.61,0.161 -5.321,-0.463 -7.671,-1.946 -2.366,-1.469 -4.285,-3.712 -5.849,-6.226 1.005,2.762 2.435,5.499 4.707,7.691 2.245,2.2 5.321,3.697 8.584,4.189 3.267,0.505 6.671,0.129 9.871,-1.052 1.038,-0.405 2.078,-0.891 3.088,-1.479 0.009,0.337 0.028,0.671 0.009,1.015 -0.115,2.162 -0.812,4.423 -2.091,6.44 -1.275,2.014 -3.126,3.788 -5.441,4.902 -2.299,1.121 -5.109,1.521 -7.894,0.862 2.41,1.52 5.513,2.209 8.618,1.828 3.109,-0.362 6.167,-1.702 8.751,-3.748 0.533,-0.422 1.035,-0.893 1.529,-1.374 0.497,1.529 1.053,3.03 1.672,4.499 2.613,6.19 6.215,11.93 10.837,16.733 4.592,4.808 10.348,8.532 16.576,10.44 3.108,0.962 6.306,1.5 9.487,1.642 3.189,0.103 6.34,-0.175 9.423,-0.692 -3.132,0.056 -6.241,-0.14 -9.265,-0.692 -3.018,-0.591 -5.925,-1.55 -8.63,-2.853 -5.424,-2.602 -9.949,-6.641 -13.324,-11.428 -0.025,-0.035 -0.043,-0.074 -0.069,-0.109 3.678,3.958 8.342,6.728 13.022,8.403 5.572,2.05 11.253,2.792 16.808,3.094 5.53,0.268 11.142,0.039 16.553,-0.799 5.423,-0.777 10.701,-1.973 15.924,-3.272 10.436,-2.637 20.67,-5.744 30.935,-8.776 -10.513,1.979 -21.033,4.037 -31.564,5.587 -4.906,0.714 -9.803,1.287 -14.663,1.54 8.966,-1.217 18.578,-4.236 28.657,-9.654 41.942,-33.401 49.682,-16.096 49.682,-16.096 -1.395,-11.136 -15.167,-12.819 -15.167,-12.819 -0.93,-6.965 24.452,-22.313 23.987,-29.741 -12.769,7.303 -14.108,-2.454 -14.108,-2.454 1.224,-5.942 13.71,-17.418 18.288,-17.898 -4.18,-5.107 -14.859,3.018 -16.25,0.232 -1.395,-2.786 9.168,-30.571 26.463,-29.715 -2.321,-4.643 -21.357,0 -21.357,0 13.311,-22.287 57.656,-60.66 63.142,-63.615 9.321,-5.023 31.266,-16.463 43.465,-30.89 6.227,-5.798 13.837,-9.908 22.267,-11.055 9.791,-1.432 20.702,1.153 28.524,7.576 3.821,3.154 6.821,7.514 6.697,11.838 0.002,0.538 -0.083,1.066 -0.185,1.594 -0.112,0.552 -0.278,1.139 -0.473,1.694 -0.4,1.117 -0.94,2.201 -1.626,3.216 -1.374,2.034 -3.301,3.794 -5.525,5.176 -4.443,2.717 -10.089,4.198 -15.374,3.271 -2.581,-0.479 -5.179,-1.81 -6.131,-4.334 -0.025,-0.062 -0.035,-0.127 -0.056,-0.19 2.085,-5.957 12.284,-17.201 5.15,-26.855 -14.071,5.101 -11.05,19.329 -5.967,27.64 0.416,1.388 1.291,2.649 2.417,3.571 1.207,0.99 2.618,1.683 4.072,2.142 2.919,0.921 5.998,1.073 9.004,0.77 3.014,-0.314 5.995,-1.112 8.809,-2.418 5.563,-2.571 10.779,-7.556 11.938,-14.698 0.508,-3.575 -0.345,-7.117 -1.747,-10.142 -1.419,-3.049 -3.405,-5.685 -5.641,-7.989 -9.07,-9.101 -21.907,-13.613 -34.816,-13.17 -2.504,0.086 -5.008,0.378 -7.483,0.851 20.454,-39.215 16.662,-75.584 16.662,-75.584 0,-4.953 8.978,-9.905 11.452,-14.549 2.477,-4.642 0.879,-28.074 11.144,-42.406 8.203,-11.452 6.306,-19.693 0.116,-19.693 0,0 -5.57,-5.456 -12.71,-2.206 -4.251,-3.303 -11.782,0.232 -10.157,5.649 0.232,2.798 4.666,10.351 0.273,28.933 -5.93,25.097 -15.181,32.7 -16.523,36.223 -1.228,3.226 -10.881,17.662 -22.463,32.534 -0.96,2.658 -2.245,5.191 -3.633,7.635 -1.861,3.311 -4.113,6.351 -6.402,9.345 -2.295,2.997 -4.766,5.839 -7.328,8.588 -5.101,5.526 -10.55,10.697 -16.217,15.598 -5.648,4.948 -11.474,9.591 -17.597,14.038 l -0.753,0.547 -1.025,-0.053 c -8.766,-0.455 -17.591,0.389 -26.135,2.588 -8.532,2.204 -16.852,5.492 -24.574,9.928 -7.74,4.385 -15.002,9.706 -21.473,15.893 -2.939,2.819 -5.724,5.847 -8.195,9.112 -0.752,0.993 -1.474,2.01 -2.158,3.052 -1.994,3.037 -3.694,6.271 -4.926,9.764 0.495,-2.75 1.418,-5.411 2.558,-7.987 0.725,-1.638 1.522,-3.252 2.413,-4.808 0.173,-0.295 0.371,-0.577 0.552,-0.869 1.035,-1.666 2.153,-3.286 3.27,-4.908 1.461,-1.779 2.806,-3.683 4.38,-5.373 6.157,-6.911 13.374,-12.859 21.232,-17.824 7.888,-4.913 16.502,-8.76 25.546,-11.189 8.707,-2.332 17.81,-3.418 26.88,-2.885 5.677,-4.083 11.279,-8.449 16.756,-12.876 0.486,-0.396 0.949,-0.818 1.432,-1.217 2.356,-1.947 4.7,-3.909 6.982,-5.935 2.772,-2.418 5.503,-4.885 8.129,-7.451 5.251,-5.127 10.323,-10.467 14.546,-16.426 1.139,-1.62 2.197,-3.296 3.147,-5.029 -1.729,-5.751 -2.302,-13.75 -1.874,-18.237 0.465,-4.875 9.054,-13.93 9.52,-14.626 0.463,-0.696 1.153,-18.998 2.9,-27.858 1.188,-6.017 3.576,-19.584 2.747,-22.595 -2.101,-7.644 -4.512,-8.633 -9.954,-8.188 -2.735,-2.027 -7.844,-1.214 -8.617,-0.318 -7.464,0.585 -9.435,4.404 -6.192,8.041 5.108,5.726 4.721,12.691 7.042,22.364 3.943,16.425 -25.922,48.364 -27.78,49.912 -1.749,1.457 -24.753,38.024 -25.114,48.693 -18.855,2.293 -43.731,8.229 -61.322,25.827 -11.501,11.504 -17.095,19.273 -20.746,24.194 -7.19,-3.859 -13.373,-6.409 -20.504,-4.789 -10.133,2.302 -55.432,6.263 -71.344,-3.851 -15.911,-10.113 -17.25,-17.656 -26.819,-17.948 -0.388,-0.011 -0.88,0.106 -1.416,0.267 -1.821,-0.033 -5.087,-0.076 -7.912,-0.032 -0.62,0.01 -1.218,0.024 -1.775,0.043 -0.572,0.02 -1.104,0.045 -1.566,0.077 0.641,0.359 1.436,0.773 2.304,1.208 0.823,0.413 1.71,0.844 2.604,1.27 0.801,1.124 1.696,2.188 2.759,3.079 1.344,1.126 2.901,2.039 4.622,2.455 1.714,0.437 3.592,0.242 5.222,-0.567 -1.55,0.944 -3.469,1.329 -5.309,1.024 -1.846,-0.282 -3.578,-1.106 -5.101,-2.176 -1.53,-1.075 -2.863,-2.416 -3.993,-3.919 -0.035,-0.046 -0.064,-0.095 -0.098,-0.142 -0.399,0.018 -0.798,0.038 -1.196,0.002 -2.222,-0.203 -5.341,1.059 -7.792,2.728 -1.389,-0.387 -3.984,-1.095 -6.491,-1.698 -0.571,-0.138 -1.136,-0.27 -1.681,-0.391 -0.893,-0.197 -1.73,-0.367 -2.439,-0.484 0.829,0.883 1.911,1.893 3.043,2.896 1.252,1.109 2.56,2.205 3.668,3.11 0.758,1.026 1.59,2.001 2.572,2.824 1.344,1.126 2.901,2.04 4.622,2.457 1.714,0.436 3.592,0.24 5.222,-0.569 -1.55,0.945 -3.469,1.329 -5.309,1.025 -1.846,-0.282 -3.578,-1.107 -5.101,-2.177 -1.423,-1 -2.658,-2.247 -3.736,-3.624 -3.41,0.865 -5.334,2.37 -6.416,3.805 -2.02,-0.223 -5.77,-0.721 -8.574,-1.581 1.758,2.181 5.207,4.827 7.187,6.265 0.626,3.309 4.049,11.923 13.165,8.666 10.687,-3.818 39.587,12.039 45.559,15.738 3.699,2.291 10.035,4.238 14.694,5.63 C 59.675,0.83 43.123,3.538 33.43,0.464 14.393,-5.571 10.93,-8.85 1.054,-6.552 c -0.814,0.19 -2.055,0.914 -3.514,1.823 -2.016,0.302 -6.496,0.983 -10.234,1.607 -0.559,0.093 -1.102,0.185 -1.616,0.274 -1.258,0.219 -2.355,0.421 -3.122,0.585 1.207,0.468 2.847,1.005 4.52,1.519 0.731,0.224 1.466,0.444 2.177,0.653 0.672,0.849 1.398,1.658 2.231,2.356 1.343,1.126 2.9,2.04 4.622,2.456 1.714,0.436 3.592,0.24 5.222,-0.568 -1.55,0.944 -3.469,1.328 -5.31,1.024 -1.845,-0.281 -3.577,-1.106 -5.101,-2.176 -1.088,-0.765 -2.04,-1.699 -2.927,-2.696 -2.216,1.052 -4.911,2.883 -6.741,5.254 -1.082,-0.063 -2.61,-0.155 -4.245,-0.26 -0.472,-0.03 -0.95,-0.062 -1.429,-0.094 -1.858,-0.125 -3.707,-0.26 -5.047,-0.385 1.503,1.199 3.916,2.663 6.045,3.878 0.998,0.569 1.933,1.083 2.682,1.488 m 72.486,44.391 c -1.437,-0.233 -2.897,-0.56 -4.162,-1.356 1.451,0.048 2.852,-0.045 4.24,-0.086 1.386,-0.076 2.755,-0.144 4.095,-0.327 1.339,-0.168 2.641,-0.447 3.878,-0.883 1.233,-0.454 2.384,-1.106 3.399,-2.187 -0.315,1.458 -1.445,2.717 -2.759,3.487 -1.318,0.805 -2.81,1.207 -4.281,1.423 -1.48,0.165 -2.961,0.152 -4.41,-0.071 m 1.981,5.025 c -2.233,-0.645 -4.511,-1.349 -6.433,-2.725 2.213,0.663 4.49,0.942 6.728,1.311 2.247,0.313 4.493,0.607 6.734,0.688 2.236,0.117 4.47,0.082 6.648,-0.259 2.164,-0.36 4.297,-1.105 5.948,-2.783 -1.009,2.169 -3.334,3.564 -5.615,4.193 -2.318,0.676 -4.722,0.793 -7.075,0.703 -2.357,-0.125 -4.679,-0.511 -6.935,-1.128 m 8.45,8.039 c -2.981,-0.328 -5.908,-1.043 -8.661,-2.195 -1.385,-0.547 -2.711,-1.253 -3.961,-2.07 -1.186,-0.865 -2.511,-1.744 -3.132,-3.133 0.951,1.122 2.276,1.757 3.574,2.343 0.653,0.295 1.301,0.589 1.985,0.812 0.667,0.256 1.338,0.499 2.029,0.691 2.731,0.83 5.528,1.43 8.348,1.705 2.817,0.326 5.663,0.215 8.425,-0.302 2.755,-0.552 5.436,-1.578 7.862,-3.266 -1.929,2.228 -4.615,3.847 -7.517,4.673 -2.899,0.856 -5.973,1.053 -8.952,0.742 M 76.887,102.456 53.859,89.242 62.526,99.36 c 0,0 0.929,8.977 2.648,11.98 1.719,3.004 11.9,-6.408 11.713,-8.884"
             style="fill:#000000;fill-opacity:1;fill-rule:nonzero;stroke:none"
             id="path42930" />
        </g>
      </g>
    </g>
  </g>
</svg>
