<?xml version="1.0" standalone="no"?>
<!DOCTYPE svg PUBLIC "-//W3C//DTD SVG 20010904//EN"
 "http://www.w3.org/TR/2001/REC-SVG-20010904/DTD/svg10.dtd">
<svg version="1.0" xmlns="http://www.w3.org/2000/svg"
 width="961.000000pt" height="442.000000pt" viewBox="0 0 961.000000 442.000000"
 preserveAspectRatio="xMidYMid meet">
<metadata>
Created by potrace 1.16, written by Peter Selinger 2001-2019
</metadata>
<g transform="translate(0.000000,442.000000) scale(0.100000,-0.100000)"
fill="#000000" stroke="none">
<path d="M1284 3545 c-159 -34 -391 -134 -532 -229 -110 -74 -216 -169 -284
-254 -60 -75 -106 -158 -94 -169 9 -9 38 20 149 146 152 172 319 298 488 368
235 96 572 119 842 57 352 -81 698 -367 858 -709 77 -164 105 -301 116 -557
l6 -168 -274 0 c-349 0 -1107 -18 -1133 -26 -20 -6 -19 -7 4 -16 52 -20 419
-28 921 -22 l516 7 6 141 c12 285 -22 461 -139 701 -68 141 -123 213 -282 366
-151 145 -248 210 -423 281 -134 55 -224 72 -460 88 -180 12 -209 12 -285 -5z"/>
<path d="M4180 2731 c-115 -36 -219 -125 -266 -226 -41 -89 -57 -171 -57 -305
-2 -323 130 -506 391 -541 276 -37 477 93 539 348 19 82 21 269 4 363 -27 143
-122 275 -237 329 -106 50 -273 65 -374 32z m272 -47 c110 -57 187 -173 209
-318 14 -88 4 -333 -17 -414 -26 -100 -112 -206 -196 -242 -44 -19 -65 -22
-133 -18 -127 7 -203 60 -264 185 -47 95 -64 180 -64 323 -1 240 75 408 217
482 75 39 175 39 248 2z"/>
<path d="M5020 2730 c-39 -6 -40 -7 -12 -8 l32 -2 0 -519 0 -520 -32 -4 c-18
-2 10 -4 62 -4 75 -1 90 1 69 9 l-26 11 -7 352 c-3 194 -3 398 0 453 l7 101
40 -57 c22 -31 126 -183 231 -337 206 -304 356 -514 379 -533 12 -10 16 -9 22
5 9 22 24 525 24 819 l1 210 28 11 c22 9 10 11 -68 10 -52 0 -80 -2 -62 -4
l32 -4 0 -392 c0 -217 -4 -387 -9 -381 -22 25 -107 147 -315 457 l-227 337
-62 -2 c-34 0 -82 -4 -107 -8z"/>
<path d="M8020 2730 c-79 -4 -98 -7 -77 -14 l27 -8 0 -508 0 -508 -27 -8 c-39
-12 143 -21 441 -23 l239 -1 -8 43 c-4 23 -11 85 -14 137 -6 83 -8 92 -18 68
-7 -14 -15 -54 -19 -88 -4 -33 -14 -70 -24 -82 -24 -30 -92 -38 -272 -31
l-158 6 0 227 0 227 137 6 c75 4 157 7 183 7 l46 0 16 -47 16 -48 0 115 0 115
-15 -47 -14 -48 -48 0 c-26 0 -109 3 -184 7 l-137 6 0 227 0 227 150 7 c82 3
160 4 172 2 77 -16 80 -17 94 -51 8 -19 14 -50 14 -69 0 -19 5 -47 11 -63 16
-43 25 -13 32 108 l7 106 -38 7 c-43 7 -377 5 -532 -4z"/>
<path d="M6093 2723 l27 -4 0 -520 0 -519 -27 -2 c-71 -4 206 -16 405 -17
l222 -1 -1 118 c-1 64 -4 128 -9 142 l-7 25 -12 -28 c-6 -16 -18 -68 -26 -115
-8 -47 -16 -86 -18 -88 -1 -1 -89 -5 -194 -9 l-193 -8 0 130 c0 71 3 299 7
505 l6 376 31 10 c24 8 -1 10 -104 9 -74 0 -123 -2 -107 -4z"/>
<path d="M6858 2718 l32 -11 0 -507 0 -506 -27 -11 c-23 -9 -11 -11 67 -10 52
0 80 2 63 4 l-33 4 0 462 c0 462 0 462 20 437 11 -14 95 -135 187 -270 231
-338 347 -503 411 -584 49 -62 56 -67 66 -50 8 13 12 180 14 531 l3 512 32 4
c18 2 -11 4 -63 4 -75 1 -90 -1 -69 -9 l26 -11 6 -326 c3 -179 3 -351 -1 -381
l-7 -55 -166 240 c-91 132 -212 309 -269 393 l-104 152 -111 -1 c-91 -1 -104
-3 -77 -11z"/>
<path d="M170 2358 c-13 -90 -7 -215 16 -368 23 -147 51 -245 103 -355 189
-401 554 -685 991 -771 131 -26 376 -24 507 4 308 67 547 205 761 442 69 76
142 177 142 197 0 8 -75 -58 -167 -146 -192 -183 -268 -246 -382 -315 -151
-91 -313 -134 -536 -143 -452 -18 -779 117 -1065 439 -89 101 -129 162 -190
293 -104 221 -130 339 -130 586 l0 157 688 4 c665 3 766 8 706 33 -37 14 -379
24 -900 24 l-532 1 -12 -82z"/>
<path d="M3330 2071 c-36 -10 -31 -33 10 -44 52 -13 356 -5 372 11 9 9 9 15 0
25 -15 14 -339 21 -382 8z"/>
<path d="M3902 1325 c-31 -23 -65 -93 -57 -119 3 -11 10 -54 14 -94 14 -127
48 -124 62 5 4 43 8 79 8 80 1 1 11 3 24 5 30 4 28 31 -3 38 -18 4 -25 13 -25
30 0 17 7 26 25 30 14 3 25 12 25 20 0 21 -46 24 -73 5z"/>
<path d="M5770 1321 c-16 -31 -13 -263 4 -287 18 -23 35 -10 52 39 15 46 38
45 68 -2 25 -39 56 -58 76 -46 6 4 0 26 -16 57 -26 51 -28 92 -9 141 14 34
-19 17 -72 -38 l-53 -55 0 80 c0 111 -23 161 -50 111z"/>
<path d="M3274 1288 c-60 -41 -99 -111 -89 -157 9 -43 51 -90 100 -112 49 -23
118 -25 135 -4 11 13 4 15 -57 15 -76 0 -104 13 -128 60 -32 62 -11 131 52
175 56 37 106 34 149 -9 28 -28 34 -41 34 -78 0 -52 -23 -92 -40 -68 -5 8 -10
35 -10 61 0 25 -5 50 -12 57 -26 26 -102 4 -132 -40 -22 -31 -20 -45 9 -73 21
-22 33 -25 93 -25 90 0 113 16 119 86 6 59 -18 96 -81 125 -58 26 -87 24 -142
-13z"/>
<path d="M4604 1265 c-28 -42 -31 -150 -6 -195 21 -38 61 -51 88 -29 20 17 17
26 -13 41 -46 22 -44 101 3 118 29 11 28 33 -2 38 -11 2 -27 15 -36 29 l-16
26 -18 -28z"/>
<path d="M3633 1225 c-33 -14 -63 -59 -63 -95 0 -33 26 -75 55 -88 105 -48
207 88 126 169 -33 32 -67 37 -118 14z"/>
<path d="M4900 1211 c0 -41 35 -149 56 -172 37 -41 60 -12 84 104 6 31 15 57
20 57 5 0 14 -26 20 -57 18 -88 35 -123 60 -123 15 0 27 12 41 45 24 54 38
175 20 175 -17 0 -41 -62 -41 -104 0 -66 -33 -52 -45 19 -20 113 -90 113 -110
0 -14 -81 -45 -98 -45 -25 0 60 -24 109 -52 110 -5 0 -8 -13 -8 -29z"/>
<path d="M5335 1228 c-34 -18 -45 -40 -45 -91 0 -40 5 -53 29 -78 41 -40 88
-40 136 2 29 26 35 38 35 71 0 50 -23 94 -52 102 -35 9 -81 7 -103 -6z"/>
<path d="M5572 1228 c-19 -19 -16 -182 3 -198 24 -20 37 0 46 66 6 44 15 64
40 90 36 37 33 54 -7 36 -20 -10 -28 -9 -40 3 -19 18 -26 19 -42 3z"/>
<path d="M4020 1092 c0 -108 3 -142 15 -158 15 -19 15 -19 30 0 8 11 15 39 15
62 0 51 7 57 48 42 49 -19 77 0 92 61 12 53 7 85 -18 114 -12 14 -32 17 -99
17 l-83 0 0 -138z"/>
<path d="M4300 1092 c0 -108 3 -142 15 -158 15 -19 15 -19 30 0 9 11 15 40 15
68 0 51 3 54 46 38 58 -23 100 27 92 111 -7 73 -17 79 -114 79 l-84 0 0 -138z"/>
</g>
</svg>
