<?xml version="1.0" encoding="UTF-8"?>
<svg xmlns="http://www.w3.org/2000/svg" xmlns:xlink="http://www.w3.org/1999/xlink" width="200px" height="200px" viewBox="0 0 200 200" version="1.1">
<g id="surface1">
<path style=" stroke:none;fill-rule:nonzero;fill:rgb(0%,0%,0%);fill-opacity:1;" d="M 30.601562 63.441406 C 22.839844 65.441406 16.800781 69.238281 13.359375 74.199219 C 11.519531 76.921875 11.921875 77.640625 13.878906 75.199219 C 19.960938 67.640625 26.359375 64.398438 35.160156 64.398438 C 41.878906 64.398438 46.71875 66.039062 51.640625 70 C 58.078125 75.160156 61.238281 81.679688 61.359375 90 L 61.398438 93.800781 L 47.398438 93.921875 C 39.71875 93.960938 33.28125 94.160156 33.078125 94.359375 C 32.441406 95 38.238281 95.238281 50.398438 95.121094 L 62.199219 95 L 62.320312 91.160156 C 62.480469 86.160156 61.679688 82.519531 59.558594 78.121094 C 58.160156 75.238281 57.238281 74 54.398438 71.199219 C 50.878906 67.71875 48.238281 66.078125 43.28125 64.320312 C 41.039062 63.558594 32.519531 62.960938 30.601562 63.441406 Z M 30.601562 63.441406 "/>
<path style=" stroke:none;fill-rule:nonzero;fill:rgb(0%,0%,0%);fill-opacity:1;" d="M 89 79.558594 C 84.238281 80.800781 81.878906 84.398438 81.839844 90.398438 C 81.800781 97.441406 85.238281 101.359375 91.398438 101.359375 C 97.558594 101.359375 100.960938 97.441406 100.960938 90.398438 C 100.960938 83.800781 97.921875 79.921875 92.320312 79.441406 C 91.160156 79.320312 89.679688 79.359375 89 79.558594 Z M 94.761719 81.199219 C 95.480469 81.679688 96.519531 83 97.121094 84.121094 C 98.078125 86 98.199219 86.601562 98.160156 90.398438 C 98.160156 94.921875 97.71875 96.441406 95.800781 98.761719 C 93.839844 101.078125 90 101.359375 87.640625 99.398438 C 83.960938 96.28125 83.320312 87.441406 86.480469 82.800781 C 88.441406 79.960938 92.078125 79.238281 94.761719 81.199219 Z M 94.761719 81.199219 "/>
<path style=" stroke:none;fill-rule:nonzero;fill:rgb(0%,0%,0%);fill-opacity:1;" d="M 104.519531 79.878906 L 105.601562 80.039062 L 105.601562 100.761719 L 104.519531 100.921875 C 103.878906 101 104.679688 101.078125 106.199219 101.121094 C 107.921875 101.121094 108.601562 101 108 100.839844 L 107 100.558594 L 106.878906 91.441406 C 106.839844 86.441406 106.921875 82.441406 107.078125 82.519531 C 107.28125 82.640625 110.199219 86.878906 113.601562 91.960938 C 117 97.039062 120.039062 101.199219 120.28125 101.199219 C 120.679688 101.199219 120.800781 98.71875 120.878906 90.71875 L 121 80.238281 L 122 79.960938 C 122.601562 79.800781 121.921875 79.679688 120.199219 79.679688 C 118.679688 79.71875 117.878906 79.800781 118.519531 79.878906 L 119.601562 80.039062 L 119.601562 87.839844 C 119.601562 92.121094 119.558594 95.601562 119.480469 95.601562 C 119.398438 95.601562 116.921875 92 113.960938 87.601562 L 108.601562 79.640625 L 106 79.679688 C 104.558594 79.71875 103.878906 79.800781 104.519531 79.878906 Z M 104.519531 79.878906 "/>
<path style=" stroke:none;fill-rule:nonzero;fill:rgb(0%,0%,0%);fill-opacity:1;" d="M 126.121094 79.878906 L 127.199219 80.039062 L 127.199219 100.761719 L 126.121094 100.921875 C 125.480469 101 128.199219 101.121094 132.121094 101.160156 L 139.199219 101.199219 L 139.199219 98.398438 C 139.199219 96.839844 139.039062 95.601562 138.839844 95.601562 C 138.640625 95.601562 138.320312 96.640625 138.160156 97.878906 L 137.800781 100.199219 L 133.878906 100.320312 L 130 100.441406 L 130.078125 90.320312 L 130.199219 80.238281 L 131.199219 79.960938 C 131.761719 79.800781 130.601562 79.679688 128.601562 79.679688 C 126.640625 79.71875 125.480469 79.800781 126.121094 79.878906 Z M 126.121094 79.878906 "/>
<path style=" stroke:none;fill-rule:nonzero;fill:rgb(0%,0%,0%);fill-opacity:1;" d="M 141.601562 79.960938 L 142.601562 80.238281 L 142.601562 100.558594 L 141.601562 100.839844 C 141 101 141.679688 101.121094 143.398438 101.121094 C 144.960938 101.078125 145.71875 101 145.121094 100.921875 L 144 100.761719 L 144 91.558594 C 144 86.519531 144.039062 82.398438 144.121094 82.398438 C 144.199219 82.398438 147.121094 86.640625 150.601562 91.800781 C 154.078125 96.960938 157.199219 101.199219 157.480469 101.199219 C 157.878906 101.199219 158 99.039062 158 90.640625 L 158 80.039062 L 159.121094 79.878906 C 159.71875 79.800781 158.960938 79.71875 157.398438 79.679688 C 155.679688 79.679688 155 79.800781 155.601562 79.960938 L 156.601562 80.238281 L 156.71875 88 C 156.761719 93 156.679688 95.640625 156.441406 95.398438 C 156.199219 95.160156 153.71875 91.558594 150.878906 87.398438 L 145.71875 79.800781 L 143.160156 79.71875 C 141.558594 79.679688 140.960938 79.761719 141.601562 79.960938 Z M 141.601562 79.960938 "/>
<path style=" stroke:none;fill-rule:nonzero;fill:rgb(0%,0%,0%);fill-opacity:1;" d="M 163.199219 79.960938 L 164.199219 80.238281 L 164.199219 100.558594 L 163.199219 100.839844 C 162.640625 101 165.601562 101.121094 169.761719 101.160156 L 177.320312 101.199219 L 177.039062 99.960938 C 176.921875 99.28125 176.800781 97.960938 176.761719 97.039062 C 176.761719 95.761719 176.679688 95.558594 176.398438 96.199219 C 176.199219 96.640625 176.039062 97.558594 176.039062 98.238281 C 176 100.199219 175.359375 100.441406 170.960938 100.320312 L 167 100.199219 L 167 91 L 170.640625 90.878906 L 174.28125 90.761719 L 174.679688 92.078125 C 175.078125 93.238281 175.121094 93.078125 175.121094 90.398438 C 175.121094 87.839844 175.078125 87.601562 174.761719 88.71875 L 174.359375 90.039062 L 170.679688 89.921875 L 167 89.800781 L 167 80.601562 L 170.800781 80.480469 C 175.039062 80.359375 175.601562 80.640625 175.601562 83.039062 C 175.601562 83.761719 175.800781 84.480469 176 84.601562 C 176.238281 84.761719 176.398438 84.078125 176.398438 82.839844 C 176.398438 81.761719 176.519531 80.601562 176.640625 80.238281 C 176.839844 79.679688 176.078125 79.601562 169.558594 79.640625 C 165.519531 79.679688 162.640625 79.800781 163.199219 79.960938 Z M 163.199219 79.960938 "/>
<path style=" stroke:none;fill-rule:nonzero;fill:rgb(0%,0%,0%);fill-opacity:1;" d="M 8.160156 87.480469 C 7.761719 90.039062 8.519531 96.441406 9.558594 99.359375 C 14.679688 113.878906 30.960938 121.320312 45.199219 115.71875 C 48.921875 114.238281 51.800781 112.28125 54.878906 109.160156 C 57.238281 106.800781 59.238281 104 58.601562 104 C 58.480469 104 56.519531 105.839844 54.28125 108.121094 C 48.121094 114.320312 43.441406 116.398438 35.640625 116.398438 C 27.601562 116.398438 22.320312 114.28125 16.960938 109 C 14.238281 106.320312 13.398438 105.160156 11.878906 102 C 9.71875 97.519531 9.199219 95.199219 9.199219 90.398438 L 9.199219 86.800781 L 23.160156 86.800781 C 30.878906 86.800781 37.238281 86.640625 37.359375 86.441406 C 37.761719 85.800781 33.921875 85.601562 21.160156 85.601562 L 8.441406 85.601562 Z M 8.160156 87.480469 "/>
<path style=" stroke:none;fill-rule:nonzero;fill:rgb(0%,0%,0%);fill-opacity:1;" d="M 70.800781 93.398438 C 70.800781 93.878906 71.519531 94 75 94 C 78.480469 94 79.199219 93.878906 79.199219 93.398438 C 79.199219 92.921875 78.480469 92.800781 75 92.800781 C 71.519531 92.800781 70.800781 92.921875 70.800781 93.398438 Z M 70.800781 93.398438 "/>
<path style=" stroke:none;fill-rule:nonzero;fill:rgb(0%,0%,0%);fill-opacity:1;" d="M 82.519531 108.078125 C 81.640625 109.441406 81.28125 110.398438 81.640625 110.398438 C 81.839844 110.398438 82 111.199219 82 112.199219 C 82 113.519531 82.160156 114 82.601562 114 C 83.039062 114 83.199219 113.519531 83.199219 112.199219 C 83.199219 110.878906 83.359375 110.398438 83.800781 110.398438 C 84.121094 110.398438 84.398438 110.199219 84.398438 110 C 84.398438 109.761719 84.121094 109.601562 83.800781 109.601562 C 83.480469 109.601562 83.199219 109.320312 83.199219 109 C 83.199219 108.679688 83.480469 108.398438 83.800781 108.398438 C 84.121094 108.398438 84.398438 108.199219 84.398438 108 C 84.398438 107.441406 82.921875 107.519531 82.519531 108.078125 Z M 82.519531 108.078125 "/>
<path style=" stroke:none;fill-rule:nonzero;fill:rgb(0%,0%,0%);fill-opacity:1;" d="M 120 110.800781 C 120 113.320312 120.121094 114 120.558594 114 C 120.878906 114 121.199219 113.601562 121.28125 113.121094 C 121.441406 111.878906 122.199219 111.800781 122.71875 113 C 122.960938 113.558594 123.441406 114 123.800781 114 C 124.558594 114 124.558594 113.800781 123.761719 112.558594 C 123.199219 111.761719 123.160156 111.359375 123.519531 110.601562 C 124.160156 109.238281 123.441406 109.320312 122.199219 110.679688 L 121.238281 111.800781 L 121.199219 109.679688 C 121.199219 108.121094 121.039062 107.601562 120.601562 107.601562 C 120.121094 107.601562 120 108.238281 120 110.800781 Z M 120 110.800781 "/>
<path style=" stroke:none;fill-rule:nonzero;fill:rgb(0%,0%,0%);fill-opacity:1;" d="M 69.558594 109.160156 C 68.121094 110.601562 68.078125 112.078125 69.398438 113.398438 C 70.398438 114.441406 72.921875 114.800781 73.398438 114 C 73.558594 113.761719 73.160156 113.71875 72.441406 113.839844 C 68.878906 114.558594 67.878906 109.878906 71.320312 108.679688 C 73.039062 108.039062 74.761719 109.800781 74.199219 111.601562 C 73.800781 112.878906 73.199219 112.519531 73.199219 111 C 73.199219 109.800781 73.078125 109.601562 72.238281 109.601562 C 70.519531 109.601562 69.359375 111.398438 70.519531 112.320312 C 71.078125 112.761719 73.558594 112.71875 74.320312 112.28125 C 74.839844 111.921875 74.960938 110.078125 74.480469 109.359375 C 74.039062 108.679688 72.558594 108 71.601562 108 C 71.121094 108 70.199219 108.519531 69.558594 109.160156 Z M 72.398438 110.960938 C 72.398438 111.519531 72.199219 112.078125 71.960938 112.238281 C 71.28125 112.640625 70.679688 111.761719 71 110.839844 C 71.359375 109.679688 72.398438 109.761719 72.398438 110.960938 Z M 72.398438 110.960938 "/>
<path style=" stroke:none;fill-rule:nonzero;fill:rgb(0%,0%,0%);fill-opacity:1;" d="M 96.800781 109.199219 C 95.71875 111.160156 96.679688 114.441406 98.160156 113.878906 C 98.960938 113.558594 99 112.800781 98.199219 112.800781 C 97.800781 112.800781 97.601562 112.398438 97.601562 111.601562 C 97.601562 110.800781 97.800781 110.398438 98.199219 110.398438 C 98.519531 110.398438 98.800781 110.199219 98.800781 110 C 98.800781 109.761719 98.558594 109.601562 98.238281 109.601562 C 97.921875 109.601562 97.601562 109.28125 97.519531 108.878906 C 97.398438 108.320312 97.28125 108.359375 96.800781 109.199219 Z M 96.800781 109.199219 "/>
<path style=" stroke:none;fill-rule:nonzero;fill:rgb(0%,0%,0%);fill-opacity:1;" d="M 76.601562 110.558594 C 75.28125 112.558594 77.398438 114.71875 79.398438 113.441406 C 80.480469 112.71875 80.761719 110.921875 79.921875 110.078125 C 79.078125 109.238281 77.28125 109.519531 76.601562 110.558594 Z M 79.121094 111.679688 C 79.039062 112.519531 78.800781 113 78.398438 113 C 78 113 77.761719 112.519531 77.679688 111.679688 C 77.558594 110.601562 77.679688 110.398438 78.398438 110.398438 C 79.121094 110.398438 79.238281 110.601562 79.121094 111.679688 Z M 79.121094 111.679688 "/>
<path style=" stroke:none;fill-rule:nonzero;fill:rgb(0%,0%,0%);fill-opacity:1;" d="M 85.199219 112.878906 C 85.199219 115.398438 85.320312 116 85.800781 116 C 86.238281 116 86.398438 115.558594 86.398438 114.601562 C 86.398438 113.28125 86.480469 113.199219 87.199219 113.601562 C 87.640625 113.839844 88.199219 113.921875 88.441406 113.761719 C 89.199219 113.320312 89.601562 111.640625 89.199219 110.640625 C 88.878906 109.800781 88.601562 109.679688 87.039062 109.679688 L 85.199219 109.71875 Z M 88 111.601562 C 88 112.878906 86.960938 113.320312 86.558594 112.199219 C 86.199219 111.359375 86.679688 110.398438 87.398438 110.398438 C 87.800781 110.398438 88 110.800781 88 111.601562 Z M 88 111.601562 "/>
<path style=" stroke:none;fill-rule:nonzero;fill:rgb(0%,0%,0%);fill-opacity:1;" d="M 90.800781 112.839844 C 90.800781 115.398438 90.921875 116 91.398438 116 C 91.839844 116 92 115.558594 92 114.601562 C 92 113.359375 92.078125 113.199219 92.679688 113.558594 C 93.800781 114.160156 94.800781 113.359375 94.800781 111.878906 C 94.800781 110.039062 94.398438 109.640625 92.480469 109.679688 L 90.800781 109.679688 Z M 93.601562 111.601562 C 93.601562 112.519531 93.441406 112.800781 92.800781 112.800781 C 92.160156 112.800781 92 112.519531 92 111.601562 C 92 110.679688 92.160156 110.398438 92.800781 110.398438 C 93.441406 110.398438 93.601562 110.679688 93.601562 111.601562 Z M 93.601562 111.601562 "/>
<path style=" stroke:none;fill-rule:nonzero;fill:rgb(0%,0%,0%);fill-opacity:1;" d="M 103.121094 111.800781 C 103.558594 113.398438 103.921875 114 104.441406 114 C 104.960938 114 105.199219 113.558594 105.441406 112.199219 C 105.558594 111.199219 105.839844 110.398438 106 110.398438 C 106.160156 110.398438 106.441406 111.199219 106.558594 112.199219 C 106.800781 113.601562 107 114 107.601562 114 C 108.121094 114 108.441406 113.480469 108.800781 111.960938 C 109.28125 109.960938 109.078125 108.921875 108.398438 110 C 108.160156 110.320312 108 111 108 111.480469 C 108 113.039062 107.320312 112.839844 107.039062 111.199219 C 106.839844 109.960938 106.601562 109.601562 106 109.601562 C 105.398438 109.601562 105.160156 109.960938 104.960938 111.199219 C 104.679688 112.960938 104 113.398438 104 111.839844 C 104 110.480469 103.601562 109.601562 103 109.601562 C 102.601562 109.601562 102.640625 110.078125 103.121094 111.800781 Z M 103.121094 111.800781 "/>
<path style=" stroke:none;fill-rule:nonzero;fill:rgb(0%,0%,0%);fill-opacity:1;" d="M 110.800781 110.441406 C 110.199219 111.558594 110.601562 113.078125 111.640625 113.640625 C 113.519531 114.601562 115.441406 112.359375 114.398438 110.441406 C 114.078125 109.839844 113.601562 109.601562 112.601562 109.601562 C 111.601562 109.601562 111.121094 109.839844 110.800781 110.441406 Z M 113.398438 110.839844 C 113.839844 111.480469 113.238281 113.199219 112.601562 113.199219 C 111.960938 113.199219 111.359375 111.480469 111.800781 110.839844 C 111.921875 110.601562 112.28125 110.398438 112.601562 110.398438 C 112.921875 110.398438 113.28125 110.601562 113.398438 110.839844 Z M 113.398438 110.839844 "/>
<path style=" stroke:none;fill-rule:nonzero;fill:rgb(0%,0%,0%);fill-opacity:1;" d="M 116 111.800781 C 116 113.480469 116.121094 114 116.601562 114 C 117 114 117.199219 113.601562 117.199219 112.640625 C 117.199219 111.640625 117.480469 111.078125 118.078125 110.640625 C 118.558594 110.28125 118.839844 109.878906 118.679688 109.761719 C 118.519531 109.601562 118.160156 109.71875 117.800781 110 C 117.398438 110.320312 117.199219 110.359375 117.199219 110.039062 C 117.199219 109.800781 116.921875 109.601562 116.601562 109.601562 C 116.121094 109.601562 116 110.121094 116 111.800781 Z M 116 111.800781 "/>
<path style=" stroke:none;fill-rule:nonzero;fill:rgb(0%,0%,0%);fill-opacity:1;" d="M 99.601562 111.601562 C 99.601562 111.800781 100.039062 112 100.601562 112 C 101.160156 112 101.601562 111.800781 101.601562 111.601562 C 101.601562 111.359375 101.160156 111.199219 100.601562 111.199219 C 100.039062 111.199219 99.601562 111.359375 99.601562 111.601562 Z M 99.601562 111.601562 "/>
</g>
</svg>
